<svg width="376" height="283" viewBox="0 0 376 283" fill="none" xmlns="http://www.w3.org/2000/svg">
<mask id="mask0_15_248" style="mask-type:alpha" maskUnits="userSpaceOnUse" x="0" y="0" width="376" height="283">
<g clip-path="url(#clip0_15_248)">
<path d="M5.06668 0.933252C5.86668 1.19992 6.66668 2.39992 6.66668 3.46659C6.66668 4.53325 7.33334 5.33325 8.13334 5.33325C8.93334 5.33325 9.20001 4.39992 8.80001 3.19992C8.40001 1.99992 8.00001 0.799918 8.00001 0.533252C8.00001 0.266585 6.93334 -8.16584e-05 5.73334 0.133252C4.26668 0.133252 4.00001 0.533252 5.06668 0.933252Z" fill="black"/>
<path d="M25.3333 1.33329C25.3333 1.99996 26 2.66663 26.8 2.66663C27.4666 2.66663 27.7333 1.99996 27.3333 1.33329C26.9333 0.533293 26.2666 -4.08292e-05 25.8666 -4.08292e-05C25.6 -4.08292e-05 25.3333 0.533293 25.3333 1.33329Z" fill="black"/>
<path d="M161.467 2.13325C161.467 3.59991 161.867 3.99991 162.267 2.93325C162.667 1.99991 162.533 0.799912 162.133 0.399912C161.733 -0.133421 161.333 0.666579 161.467 2.13325Z" fill="black"/>
<path d="M251.333 2.66669C250.533 5.33335 248 6.40002 248 4.13335C248 1.86669 243.6 3.46669 240.933 6.80002C239.6 8.53335 237.867 10.1334 237.2 10.1334C236.533 10.2667 235.467 10.4 234.933 10.5334C234.267 10.5334 233.067 12.1334 232.267 13.8667C230.667 17.4667 225.333 19.4667 225.333 16.5334C225.333 15.4667 224 14.6667 222.4 14.6667C219.867 14.6667 219.733 14.4 221.333 13.3334C223.6 11.8667 221.467 11.6 218 12.8C216.133 13.6 216.267 14.1334 219.6 16.8C222 18.8 222.667 20 221.333 20C220.267 20 218.267 20.9334 216.933 21.8667C214.8 23.6 215.067 24.1334 221.067 28.5334C224.8 31.2 228.933 33.3334 230.4 33.3334C231.867 33.3334 234.933 35.0667 237.067 37.0667C239.333 39.2 242.667 41.8667 244.533 43.2C247.2 44.8 248 46.5334 248 50C248 52.5334 248.667 54.6667 249.333 54.6667C250.133 54.6667 250.667 55.3334 250.667 56.1334C250.667 56.9334 249.467 57.2 248 56.6667C246.133 56.1334 245.333 56.4 245.333 57.7334C245.333 59.0667 246.267 59.4667 248 59.0667C251.333 58.1334 251.467 60.6667 248.4 62.5334C247.067 63.3334 246.667 64 247.333 64C248.133 64.1334 250.533 64.4 252.667 64.6667C254.933 64.8 258.133 65.4667 260 66.1334C263.067 67.0667 263.2 66.9334 261.467 64.9334C260.533 63.7334 258.4 62.6667 256.8 62.5334C254.267 62.4 254.4 62.2667 257.333 61.4667C260.533 60.5334 260.533 60.5334 256.133 59.6C252.4 58.8 251.867 58.4 253.333 56.6667C254.4 55.3334 254.533 54.1334 253.733 52.9334C251.6 50.4 252.267 46.9334 254.933 46.2667C256.267 45.8667 257.6 46.1334 258 46.8C259.067 48.4 262.667 46.6667 262.667 44.5334C262.667 43.4667 262.133 42.6667 261.333 42.6667C260.667 42.6667 260 41.4667 260 40C260 36.8 259.2 36.6667 254.4 39.2C252.267 40.4 250.667 40.5334 250.667 39.8667C250.667 39.0667 250.133 38.8 249.467 39.3334C248.8 39.7334 247.733 39.3334 247.333 38.6667C246.267 36.9334 249.2 29.3334 250.933 29.3334C251.6 29.3334 251.733 30 251.333 30.6667C250.933 31.4667 252.133 32.6667 254 33.3334C258.667 35.0667 261.333 35.0667 261.333 33.0667C261.333 32.2667 260.933 32 260.533 32.4C258.667 34.2667 254.933 30.6667 255.733 27.7334C256.267 25.6 256 25.0667 254.4 25.7334C252.8 26.2667 252.4 25.6 252.533 23.2C252.667 20.9334 253.2 20.2667 254.933 20.8C256.933 21.4667 260 18 260.8 14C260.933 13.2 261.6 11.4667 262.133 10C263.2 7.46669 263.067 7.46669 260.8 9.73335C259.333 11.2 257.2 11.7334 255.067 11.3334C249.733 10.4 249.733 9.33335 255.2 9.33335C257.867 9.33335 259.867 8.80002 259.333 8.13335C258 5.73335 261.467 5.06669 263.867 7.20002C266.133 9.33335 266.4 9.33335 267.2 7.33335C268.4 4.13335 268.267 3.73335 265.733 4.53335C264.4 4.93335 262.533 4.80002 261.467 4.13335C260 3.20002 260.133 2.66669 262.133 1.46669C264.267 0.400021 263.6 0.133354 258.4 2.09358e-05C253.333 2.09358e-05 252 0.533354 251.333 2.66669ZM254.667 6.00002C253.733 7.06669 252.533 8.00002 251.867 8.00002C251.2 8.00002 251.067 7.06669 251.467 6.00002C252 4.93335 253.2 4.00002 254.267 4.00002C256 4.00002 256 4.40002 254.667 6.00002ZM248 14.9334C248 16.8 243.333 14.9334 242.933 12.8C242.533 10.8 242.8 10.6667 245.2 12.2667C246.8 13.2 248 14.4 248 14.9334ZM235.6 19.4667C236.533 21.8667 233.333 24.5334 231.467 22.6667C230 21.2 231.333 17.3334 233.333 17.3334C234.133 17.3334 235.067 18.2667 235.6 19.4667ZM247.2 22.1334C247.6 23.2 247.467 23.7334 246.667 23.3334C245.867 22.9334 245.333 22 245.333 21.2C245.333 19.3334 246.267 19.7334 247.2 22.1334ZM250.667 26.8C250.667 27.4667 250.133 27.8667 249.467 27.3334C248.8 26.9334 246.8 28 245.067 29.6C241.467 33.2 238.667 33.4667 236.4 30.6667C235.2 29.3334 234.8 29.2 234.667 30.2667C234.667 31.2 234 32 233.067 32C228.933 32 236 27.8667 240.533 27.7334C243.2 27.6 245.733 27.0667 246.133 26.4C247.067 24.8 250.667 25.0667 250.667 26.8Z" fill="black"/>
<path d="M266 1.33338C265.6 2.00005 266.4 2.66672 267.867 2.66672C269.467 2.66672 271.067 2.66672 271.6 2.80005C272.133 2.80005 272.8 2.26672 273.067 1.46672C273.733 -0.399951 267.067 -0.533285 266 1.33338Z" fill="black"/>
<path d="M274.667 0.533318C274.667 1.46665 282.933 5.33332 284.933 5.33332C286 5.33332 286.533 5.86665 286 6.53332C285.6 7.33332 286.8 7.33332 289.333 6.66665C291.6 5.99999 294.4 5.86665 295.467 6.26665C296.667 6.66665 297.333 6.26665 297.067 5.19999C296.8 4.26665 297.333 3.33332 298 3.33332C298.8 3.19998 300.8 2.39999 302.667 1.59998C305.733 0.133318 305.6 0.133318 300.667 0.399985C297.2 0.533318 295.467 1.19998 295.733 2.26665C295.867 3.19999 295.467 3.99998 294.667 3.99998C294 3.99998 293.333 3.06665 293.333 1.99998C293.333 0.399985 291.467 -1.51231e-05 284 -1.51231e-05C278.933 -1.51231e-05 274.667 0.266652 274.667 0.533318Z" fill="black"/>
<path d="M310.133 1.19996C309.6 1.86663 311.067 3.19996 313.2 4.1333C315.333 5.06663 316.8 6.39996 316.533 6.9333C316.133 7.46663 314.4 7.06663 312.667 5.86663C309.733 3.86663 309.333 3.99996 307.733 6.5333C305.867 9.59996 303.867 10.2666 304.4 7.7333C304.533 6.79996 303.2 5.86663 301.333 5.59996C298.267 5.06663 298.133 5.19996 300.133 7.46663C301.333 8.9333 302.933 12 304 14.2666C305.333 17.7333 306.267 18.5333 308.533 18C315.6 16.4 323.467 14.8 324.533 14.6666C325.067 14.6666 325.333 13.7333 324.933 12.6666C324 10.2666 325.2 9.46663 335.333 5.99996C349.867 0.933297 350 0.133296 336.933 -3.75737e-05C329.467 -3.75737e-05 325.467 0.533297 326 1.3333C326.4 1.99996 326.133 2.66663 325.467 2.66663C322.667 2.66663 322 2.9333 320.4 4.26663C318.4 5.86663 318 3.86663 319.867 1.86663C320.667 1.19996 319.333 0.533296 316 0.266629C313.2 0.133296 310.533 0.533297 310.133 1.19996ZM322.4 8.26663C321.867 10.4 316 13.6 314.133 12.8C313.333 12.4 314 11.7333 315.733 11.3333C317.333 10.8 318.667 9.46663 318.667 8.5333C318.667 7.46663 319.6 6.66663 320.667 6.66663C321.733 6.66663 322.533 7.3333 322.4 8.26663Z" fill="black"/>
<path d="M68.2667 4.26667C66.1333 6.4 66.2667 8 68.5333 8C70.6667 8 72.4 4.4 70.8 3.46667C70.2667 3.06667 69.0667 3.46667 68.2667 4.26667Z" fill="black"/>
<path d="M85.3333 5.46663C85.3333 6.9333 86 7.7333 86.6666 7.3333C87.4666 6.9333 88 5.59996 88 4.5333C88 3.46663 87.4666 2.66663 86.6666 2.66663C86 2.66663 85.3333 3.86663 85.3333 5.46663Z" fill="black"/>
<path d="M209.2 4.80004C207.6 6.66671 207.733 6.93337 209.867 6.53337C211.333 6.26671 212.667 5.20004 213.067 4.26671C213.733 2.00004 211.333 2.26671 209.2 4.80004Z" fill="black"/>
<path d="M200 7.33328C199.067 8.39995 197.733 8.93328 196.8 8.39995C196 7.86662 196.133 8.53328 197.2 9.86662C199.067 12 199.2 12 200.667 9.33328C201.467 7.86662 202.667 7.06662 203.333 7.59995C203.867 8.13328 204 7.86662 203.467 6.93328C202.267 4.93328 202 4.93328 200 7.33328Z" fill="black"/>
<path d="M230.533 7.33338C228.533 8.40005 226.667 10.1334 226.133 11.3334C224.933 14.5334 227.2 13.7334 231.333 9.33338C235.6 4.80005 235.467 4.66672 230.533 7.33338Z" fill="black"/>
<path d="M270.267 8.13337C269.6 10.5334 270 10.8 272.4 10.1334C274 9.73337 275.733 9.33337 276.4 9.33337C276.933 9.33337 277.333 8.40004 277.333 7.33337C277.333 4.13337 271.067 4.80004 270.267 8.13337Z" fill="black"/>
<path d="M189.733 7.60005C190.933 7.86672 192.8 7.86672 193.733 7.60005C194.533 7.20005 193.6 6.93338 191.333 6.93338C189.2 6.93338 188.4 7.20005 189.733 7.60005Z" fill="black"/>
<path d="M346.667 8.66663C344.8 9.73329 344 10.5333 344.8 10.6666C345.467 10.6666 347.333 9.73329 348.8 8.66663C352 6.26663 350.933 6.13329 346.667 8.66663Z" fill="black"/>
<path d="M204.267 10C203.333 11.2 203.2 12 204 12C206.133 12 205.6 14.8 203.067 16.8C199.6 19.3334 198.267 19.0667 199.067 15.8667C199.467 14.2667 199.467 13.4667 199.067 13.8667C198.667 14.2667 197.467 13.7334 196.4 12.6667C195.067 11.3334 191.733 10.6667 186.267 10.8C181.733 10.8 178.667 11.2 179.6 11.4667C180.533 11.8667 180.933 12.9334 180.533 13.8667C179.467 16.5334 185.333 19.4667 192.533 19.8667C199.867 20.1334 201.733 20.9334 200.533 22.8C200.133 23.4667 199.2 23.7334 198.533 23.3334C197.867 22.8 197.333 23.0667 197.333 23.6C197.333 24.2667 199.467 24.8 202 24.8C205.867 24.8 206.667 24.2667 206.667 22C206.667 20.4 207.2 18.6667 207.867 17.8667C208.533 17.2 209.333 14.9334 209.6 12.6667C210 8.26671 207.2 6.80005 204.267 10Z" fill="black"/>
<path d="M151.333 12C150.933 12.8 151.467 12.9333 152.533 12.5333C154.933 11.6 155.333 10.6666 153.467 10.6666C152.667 10.6666 151.733 11.2 151.333 12Z" fill="black"/>
<path d="M339.333 11.8667C338.533 12.5333 336.267 13.3333 334 13.7333L330 14.2667L334.133 14.5333C336.267 14.5333 339.333 13.7333 340.8 12.6667C342.133 11.6 342.667 10.6667 342 10.6667C341.2 10.6667 340 11.2 339.333 11.8667Z" fill="black"/>
<path d="M86.6667 13.3333C86.6667 14.9333 90.4 16.6666 91.4667 15.6C91.8667 15.2 90.9334 14.2666 89.4667 13.3333C87.4667 12.4 86.6667 12.4 86.6667 13.3333Z" fill="black"/>
<path d="M0.8 14.3999C0.4 14.7999 0 17.0666 0 19.4666C0 23.4666 0.266667 23.7333 5.33333 24.2666C8.4 24.5333 11.4667 24.2666 12.2667 23.7333C13.2 23.3333 14.4 23.1999 15.0667 23.5999C17.4667 25.0666 12.8 26.3999 7.2 25.8666C-0.133333 25.1999 -1.6 27.3333 5.46667 28.5333C9.2 29.0666 10.5333 29.8666 9.86667 31.0666C9.33333 31.8666 10.2667 31.4666 11.8667 29.9999C14.2667 27.8666 15.2 27.7333 17.3333 29.0666C20.4 30.9333 24 31.1999 24 29.4666C24 28.7999 22.6667 28.5333 21.0667 28.9333C19.3333 29.3333 18.4 29.3333 18.9333 28.6666C21.3333 25.9999 3.33333 11.7333 0.8 14.3999Z" fill="black"/>
<path d="M127.333 14.6667C124.933 15.7334 124.933 15.8667 128 15.8667C129.867 15.8667 132.267 15.3334 133.333 14.6667C134.933 13.6 134.933 13.3334 132.667 13.4667C131.2 13.4667 128.8 14 127.333 14.6667Z" fill="black"/>
<path d="M158.667 16.2667C157.2 17.8667 156 19.6 156 20.2667C156 20.8 154.933 20.9333 153.733 20.5333C151.733 19.8667 151.733 20.1333 153.867 21.8667C157.067 24.4 165.867 24.8 164.933 22.2667C164.667 21.4667 163.067 20.8 161.6 20.8C160 20.9333 158.667 20.4 158.667 19.8667C158.667 19.2 159.6 18.6667 160.667 18.6667C161.733 18.6667 162.667 17.8667 162.667 16.9333C162.667 16.1333 163.333 16.4 164.133 17.6C164.8 18.9333 166.933 20 168.8 20C171.6 20 172 20.5333 171.333 22.6667C170.8 24.5333 171.067 25.3333 172.4 25.3333C173.733 25.3333 174.133 26.2667 173.733 27.8667C173.2 29.8667 174 30.5333 177.6 31.0667C182.933 31.8667 184.667 31.0667 182.533 28.5333C181.733 27.6 180.533 27.0667 179.867 27.4667C179.2 27.8667 179.067 27.2 179.467 26C180.133 24.5333 179.733 24.1333 177.867 24.8C175.867 25.3333 176.133 24.9333 178.533 22.9333L181.733 20.4L175.867 19.4667C172 18.8 170.667 18.1333 171.867 17.4667C173.067 16.6667 173.2 16 172.133 15.4667C171.333 14.9333 170.133 14.8 169.467 15.2C168.8 15.7333 166.667 15.4667 164.8 14.6667C162 13.6 160.933 13.8667 158.667 16.2667Z" fill="black"/>
<path d="M373.333 15.3333C372.267 16.5333 372.267 17.3333 373.067 17.3333C374.667 17.3333 376.533 14.7999 375.6 13.8666C375.333 13.5999 374.267 14.1333 373.333 15.3333Z" fill="black"/>
<path d="M40 15.9999C40 16.6666 40.6667 17.3333 41.4667 17.3333C42.1333 17.3333 42.4 16.6666 42 15.9999C41.6 15.1999 40.9333 14.6666 40.5333 14.6666C40.2667 14.6666 40 15.1999 40 15.9999Z" fill="black"/>
<path d="M56 15.8666C56 16.5333 54.2667 17.4666 52 18C49.8667 18.5333 48 19.4666 48 20.2666C48 20.9333 47.2 21.3333 46.4 20.9333C44.2667 20.2666 40 22.2666 40 24C40 24.6666 42.9333 25.0666 46.6667 24.8C51.3333 24.5333 53.7333 24.9333 54.9333 26.2666C57.0667 28.9333 57.3333 33.3333 55.2 33.3333C53.2 33.3333 53.3333 38.5333 55.3333 38.8C56 38.9333 57.7333 38.9333 59.0667 38.8C60.2667 38.6666 61.3333 39.2 61.3333 39.8666C61.3333 40.6666 60.4 41.3333 59.3333 41.3333C58.2667 41.3333 57.4667 42 57.7333 42.8C57.8667 43.6 56.9333 44.5333 55.6 44.6666C51.6 45.3333 51.2 46.6666 55.0667 46.6666C56.9333 46.6666 59.3333 45.6 60.2667 44.2666C63.2 40.1333 70.6667 35.7333 73.3333 36.4C74.8 36.8 76.1333 36.2666 76.5333 35.0666C76.9333 34 76.6667 33.6 76 34C75.2 34.4 74.6667 34.2666 74.6667 33.6C74.6667 32 85.0667 31.7333 86 33.3333C87.3333 35.4666 82.8 36.4 80.2667 34.5333C78.6667 33.2 78.6667 33.6 80.6667 35.8666C82.6667 38.2666 82.8 38.9333 81.3333 38.4C79.8667 37.8666 79.2 38.5333 79.0667 40.1333C78.8 43.3333 80.1333 43.3333 83.7333 40C85.3333 38.5333 87.3333 37.3333 88.2667 37.3333C90.1333 37.2 96 32.8 96 31.3333C96 30.9333 95.0667 29.6 94 28.4C92.9333 27.3333 92.2667 25.8666 92.6667 25.2C93.2 24.5333 92.6667 24 91.6 24C90.5333 24 89.3333 25.2 88.9333 26.6666C88.1333 30 84.9333 30.1333 82.5333 26.9333C80.8 24.8 80.8 24.8 83.3333 26.6666C85.7333 28.5333 85.8667 28.5333 84.2667 26.4C83.2 25.2 82.8 23.3333 83.3333 22.4C83.8667 21.4666 83.3333 21.7333 82.4 22.9333C81.3333 24.1333 79.3333 25.0666 78 24.9333C76.5333 24.8 75.3333 25.4666 75.3333 26.2666C75.3333 28.4 69.3333 32.6666 69.3333 30.6666C69.3333 29.8666 68.8 29.4666 68.1333 29.8666C67.4667 30.2666 66.2667 29.8666 65.4667 28.8C64.2667 27.3333 64.8 26.8 68 26.2666C70.8 25.6 71.7333 24.8 71.2 23.4666C70.6667 22 69.3333 21.7333 66.5333 22.2666C61.8667 23.2 58.2667 20.6666 59.3333 17.2C59.8667 15.4666 59.4667 14.6666 58.1333 14.6666C56.9333 14.6666 56 15.2 56 15.8666ZM57.3333 19.4666C57.3333 20.5333 54.8 21.2 54.1333 20.2666C53.7333 19.6 54.2667 19.0666 55.3333 19.0666C56.4 19.0666 57.3333 19.3333 57.3333 19.4666ZM66.2667 24.8C65.8667 25.2 64.6667 25.3333 63.7333 24.9333C62.6667 24.5333 63.0667 24.1333 64.5333 24.1333C66 24 66.8 24.4 66.2667 24.8Z" fill="black"/>
<path d="M94.6667 17.7332C94.6667 20.2666 95.2 21.0666 96.6667 20.5332C97.7334 19.9999 98.6667 19.1999 98.6667 18.6666C98.6667 18.1332 97.7334 16.9332 96.6667 15.9999C94.9334 14.5332 94.6667 14.9332 94.6667 17.7332Z" fill="black"/>
<path d="M112.533 17.0667C112.533 19.2 113.067 19.3333 116.267 18.1333C118.8 17.2 119.467 16.2667 118.533 15.3333C117.6 14.4 116.8 14.6667 116 16C115.067 17.3333 114.667 17.4667 114.667 16.2667C114.667 15.4667 114.133 14.6667 113.6 14.6667C113.067 14.6667 112.533 15.7333 112.533 17.0667Z" fill="black"/>
<path d="M135.333 17.0667C133.867 17.3333 132.267 18.2667 131.733 19.2C131.067 20.1333 130.667 20.1333 130.667 19.3333C130.667 17.6 125.733 17.0667 124.667 18.6667C123.733 20.1333 128 23.4667 129.067 21.8667C130.667 19.8667 136 19.7333 136.8 21.7333C137.333 23.2 138.667 23.4667 141.867 22.6667C144.267 22.1333 147.333 22.2667 148.533 22.9333C150.133 23.8667 150.4 23.6 149.867 22.1333C148.933 19.7333 144.8 18.6667 142.533 20.1333C140 21.7333 137.333 21.6 137.333 20C137.333 19.3333 138.133 19.0667 139.2 19.4667C140.267 19.8667 141.467 19.6 141.867 18.9333C142.8 17.3333 139.067 16.2667 135.333 17.0667Z" fill="black"/>
<path d="M338.933 20.1333C337.2 20.8 331.2 21.2 325.467 21.2C319.867 21.0666 313.867 21.6 312.267 22.5333C309.867 23.8666 309.467 23.7333 310.133 22C310.933 19.8666 309.2 19.2 307.467 20.9333C306.933 21.6 306 22 305.467 22C304.933 22 301.467 25.6 297.6 30C286.8 42.1333 286.667 42.4 289.733 42.2666C294.933 42.1333 297.2 43.0666 300 46.9333C302.8 50.8 302.933 51.2 300.8 52.8C299.6 53.6 297.467 54.1333 296.267 53.7333C295.067 53.4666 292.8 54.1333 291.333 55.0666C289.2 56.8 289.067 57.3333 290.533 59.2C293.6 62.9333 305.333 60.6666 305.333 56.4C305.333 55.3333 304.8 54.9333 304 55.3333C303.333 55.7333 302.667 55.4666 302.667 54.8C302.667 54 304 53.3333 305.733 53.2C307.333 53.0666 310.667 52.9333 313.067 52.6666C316.4 52.4 317.333 52.8 317.067 54.5333C316.667 56.6666 314.8 58.6666 312.933 58.6666C312.4 58.6666 312 57.8666 312.267 56.9333C312.667 55.2 311.867 54.6666 308.667 54.6666C305.867 54.6666 306.133 58.6666 309.067 58.6666C310.267 58.6666 312.533 59.6 313.867 60.6666C316.8 62.9333 318.933 62.1333 317.733 59.3333C317.333 58.2666 317.733 57.3333 318.667 57.3333C319.467 57.3333 319.733 56.8 319.333 56C318.933 55.2 319.467 55.0666 320.667 55.4666C321.867 56 322.267 56.9333 321.733 57.8666C321.067 58.8 321.733 58.4 322.933 56.9333C324.267 55.6 326 54.9333 326.8 55.4666C327.733 56 328.133 55.8666 327.733 55.2C327.333 54.5333 327.467 52.8 328 51.3333C328.933 48.9333 329.067 48.9333 330 50.9333C330.533 52.4 329.733 55.7333 328 59.3333C325.6 64.4 324.533 65.3333 322.133 64.6666C319.333 63.8666 319.333 63.8666 321.867 65.8666C323.333 67.0666 324.933 68 325.467 68C326 68 326.8 68.9333 327.2 70.1333C327.867 72 327.733 72.1333 326 70.6666C323.6 68.6666 323.467 70.2666 325.333 75.4666C326.4 78 326.267 79.4666 325.2 80.8C324.267 81.8666 323.867 83.0666 324.267 83.3333C324.667 83.7333 325.733 83.2 326.533 82.1333C327.733 80.6666 329.067 80.5333 331.467 81.3333C333.467 82.1333 334.667 82.1333 334.667 81.3333C334.667 80.5333 335.333 80 336.133 80C337.2 80 337.2 80.6666 336 82C333.6 84.9333 337.867 84.6666 341.333 81.7333C344.533 78.9333 344.667 76.5333 342.133 73.8666C339.6 71.4666 338.667 71.4666 338.667 74C338.667 75.0666 338 76 337.2 76C336.533 76 336.267 76.6666 336.8 77.6C337.333 78.5333 337.2 78.6666 336.133 78.1333C335.333 77.6 334.933 76.6666 335.333 76C335.733 75.4666 334.8 74.6666 333.333 74.2666C330.667 73.6 330.667 73.6 333.333 67.3333C334.8 63.8666 335.733 60.5333 335.2 59.8666C334.8 59.2 335.2 58.6666 335.867 58.6666C338 58.6666 337.6 56.5333 335.2 54.1333C332.133 50.9333 334.4 51.4666 343.333 56C347.733 58.1333 352.667 60 354.267 60C356.267 60 358.133 61.6 360.133 65.0666C362.933 69.8666 363.467 70.1333 369.6 70.1333H376V64.2666C376 59.6 375.6 58.6666 374.267 59.7333C373.333 60.5333 371.067 60.9333 369.2 60.4C366.133 59.7333 366.133 59.7333 368.667 61.7333C371.333 63.8666 371.333 63.8666 368.267 66.6666C366.533 68.2666 364.8 69.2 364.267 68.8C362.933 67.4666 362.933 62.6666 364.4 62.6666C367.2 62.6666 364.133 59.3333 361.2 59.2C359.467 59.2 358.133 58.4 358.4 57.6C358.533 56.6666 357.867 55.8666 357.067 55.8666C356.133 55.7333 357.2 55.3333 359.333 54.8C364.533 53.6 366.667 54.4 365.6 57.0666C364.933 58.9333 365.067 59.0666 366.933 57.3333C368.133 56.2666 368.933 55.3333 368.8 55.2C368.8 55.2 366.933 54.1333 364.8 52.8C362.667 51.4666 361.467 51.0666 362 52C362.667 53.2 362.133 53.3333 359.867 52.6666C358.133 52.1333 356.267 50.9333 355.733 50.1333C354.133 47.7333 359.067 46.8 362.267 48.8C372.933 55.4666 377.867 57.2 372.267 52.1333C368.8 49.2 367.733 45.6 369.333 42.6666C370.4 40.5333 370.4 40.2666 368.667 40.8C367.6 41.3333 366.667 40.9333 366.667 40C366.667 39.0666 365.867 38.6666 364.8 39.0666C363.733 39.4666 362.133 38.9333 361.333 37.8666C360.4 36.8 358.667 36 357.467 36C355.6 36.1333 355.6 36.2666 357.733 37.4666C358.933 38.1333 360 39.3333 360 40C360 42.6666 355.467 45.3333 351.067 45.3333C348.4 45.3333 344.667 46.5333 342.267 48.2666C339.467 50.1333 338.667 50.4 339.733 49.0666C340.8 47.7333 341.067 46 340.533 45.2C340 44.1333 340.133 44 341.2 44.5333C342.133 45.2 342.933 44 343.6 41.3333C344.133 38.4 344.667 37.6 345.467 38.9333C346.267 40.1333 346.667 39.7333 346.667 37.6C346.667 35.8666 346.133 34.8 345.467 35.3333C344.8 35.7333 343.867 35.4666 343.333 34.6666C342.933 34 341.333 33.3333 339.867 33.3333C337.733 33.3333 337.467 34 338 38.1333C338.533 42.8 336.533 48 334.133 48C333.333 48 333.467 47.3333 334.4 46.4C336.533 44.2666 336.4 42 334.267 43.8666C333.2 44.6666 331.867 44.8 331.333 44.2666C330.667 43.7333 330.667 44.1333 331.2 44.9333C331.733 45.8666 331.467 46.6666 330.8 46.6666C330 46.6666 329.333 46 329.333 45.3333C329.333 44.5333 328.667 44 327.867 44C327.2 44 326.933 44.5333 327.333 45.3333C327.733 46 327.467 46.6666 326.8 46.6666C326 46.6666 325.333 45.8666 325.333 44.9333C325.333 44.1333 324.533 44.5333 323.733 45.8666C322.667 47.8666 322.8 48.8 324.533 50C327.467 52.1333 327.2 53.2 324 52.9333C322.533 52.8 321.333 52.2666 321.333 51.6C321.333 51.0666 320.667 50.9333 319.867 51.4666C319.067 51.8666 319.467 50.8 320.667 48.8C322 46.9333 322.4 45.3333 321.6 45.3333C320.8 45.3333 319.6 46.2666 318.933 47.3333C318 49.0666 317.2 49.2 313.867 47.8666L310 46.2666L317.067 44C327.067 40.9333 335.067 30.5333 328.933 28.8C324.8 27.7333 323.733 27.8666 324.667 29.3333C325.067 30 324.667 30.6666 323.6 30.6666C322.533 30.6666 321.2 31.6 320.8 32.8C320.267 34 319.067 34.6666 317.867 34.1333C316.8 33.7333 316.267 33.8666 316.667 34.6666C317.2 35.4666 316 36 314 36C312 36 310.8 35.4666 311.333 34.6666C311.733 34 311.333 33.6 310.4 33.8666C309.467 34.1333 306.533 34.8 304 35.2C300.533 35.8666 299.733 35.7333 300.933 34.5333C301.733 33.7333 302.133 32.2666 301.867 31.3333C301.467 30.4 302.133 29.3333 303.333 28.8C304.533 28.4 305.2 28.5333 304.8 29.2C304.4 29.8666 305.333 30.6666 307.067 30.9333C310.4 31.6 317.867 28.9333 316.533 27.6C316 27.0666 314.8 27.3333 313.733 28.2666C312.267 29.3333 312.133 29.2 312.8 27.4666C313.733 24.9333 314 24.9333 317.6 26.8C319.467 27.8666 321.333 27.7333 324.133 26.5333C326.933 25.4666 328.533 25.3333 329.6 26.4C330.4 27.2 331.867 27.4666 332.8 27.0666C333.733 26.6666 335.6 27.3333 336.667 28.5333C339.467 31.3333 345.067 31.3333 348.133 28.5333C352 25.0666 358.667 25.2 364 29.0666C366.533 30.9333 367.867 31.6 367.067 30.6666C366.133 29.6 365.333 28 365.333 26.9333C365.333 23.3333 361.333 21.7333 355.467 22.8C352.533 23.3333 349.6 23.4666 348.933 23.0666C348.4 22.8 346.4 23.4666 344.667 24.5333C340.667 27.2 340.133 25.4666 344 22.6666C349.067 19.0666 345.733 17.3333 338.933 20.1333ZM342.667 36.5333C342.667 36.9333 342.133 37.6 341.333 38C340.667 38.4 340 38.1333 340 37.4666C340 36.6666 340.667 36 341.333 36C342.133 36 342.667 36.2666 342.667 36.5333ZM316 40C316 40.6666 315.733 41.3333 315.467 41.3333C315.067 41.3333 314.4 40.6666 314 40C313.6 39.2 313.867 38.6666 314.533 38.6666C315.333 38.6666 316 39.2 316 40ZM351.6 47.4666C351.2 47.8666 350 48 349.067 47.6C348 47.2 348.4 46.8 349.867 46.8C351.333 46.6666 352.133 47.0666 351.6 47.4666ZM353.867 55.7333C354.133 56.2666 353.2 56.9333 351.6 56.9333C349.333 57.2 349.067 56.9333 350.667 56C353.067 54.4 353.067 54.4 353.867 55.7333Z" fill="black"/>
<path d="M106.667 24.1333C106.667 26.1333 106 26.6667 104.4 26.1333C99.7333 24.8 94 24 96 24.9333C97.2 25.6 98 27.8667 98 30.5333C98 34.4 98.5333 35.2 101.333 35.6C103.067 35.8667 105.067 36.9333 105.733 38.1333C106.667 39.7333 107.467 39.6 110.8 36.6667C114.667 33.4667 117.067 32.6667 121.2 33.3333C122.533 33.4667 122.533 32.9333 120.8 31.2C119.6 30 118.8 28.1333 119.2 27.2C120.933 22.6667 114.8 26.9333 112 32.1333C111.2 33.4667 109.733 34.6667 108.667 34.6667C106 34.6667 104.667 31.8667 106.8 30.5333C107.867 29.8667 108.267 29.3333 107.6 29.3333C107.067 29.3333 107.6 27.8667 108.667 26.1333C110.533 23.3333 110.533 22.9333 108.667 22.2667C107.333 21.6 106.667 22.2667 106.667 24.1333Z" fill="black"/>
<path d="M31.6 24.2666C29.6 24.9333 28.2667 26.1333 28.8 26.8C29.2 27.4666 28.8 28 28.1334 28C27.3334 28 26.6667 28.6666 26.6667 29.4666C26.6667 30.4 28.1334 30.6666 30.6667 30.2666C33.4667 29.6 34.9334 30 35.7334 31.6C36.5334 33.0666 37.2 33.2 37.8667 32.1333C39.0667 30.2666 37.6 25.3333 35.8667 25.3333C35.0667 25.3333 34.9334 24.6666 35.3334 24C35.7334 23.2 36 22.6666 35.7334 22.8C35.4667 22.8 33.7334 23.4666 31.6 24.2666Z" fill="black"/>
<path d="M132.667 25.3333C132.267 26.1333 132.8 26.2667 133.867 25.8667C136.267 24.9333 136.667 24 134.8 24C134 24 133.067 24.5333 132.667 25.3333Z" fill="black"/>
<path d="M52 26.5333C52 27.1999 52.6667 28.2666 53.3333 28.6666C54.1333 29.0666 54.6667 28.9333 54.6667 28.1333C54.6667 27.4666 54.1333 26.3999 53.3333 25.9999C52.6667 25.5999 52 25.7333 52 26.5333Z" fill="black"/>
<path d="M127.867 30.5333C129.467 31.6 134.667 31.0667 134.667 29.8667C134.667 29.6 132.667 29.3333 130.4 29.3333C127.333 29.3333 126.533 29.7333 127.867 30.5333Z" fill="black"/>
<path d="M169.333 31.8666C170 33.3333 170.667 34.9333 170.667 35.3333C170.667 36.5333 160 34.7999 156.933 33.0666C154.8 31.9999 154.667 32.1333 156.133 34.5333C157.2 36.1333 159.2 37.0666 161.6 37.0666C163.733 36.9333 166.667 38.1333 168.4 39.7333C171.333 42.3999 171.333 42.3999 174.533 39.8666C177.067 37.8666 177.2 37.3333 175.333 37.3333C173.867 37.3333 173.333 36.6666 173.867 35.1999C174.267 34.1333 174.133 33.5999 173.467 33.9999C172.8 34.3999 171.867 33.4666 171.333 31.9999C170.933 30.5333 169.867 29.3333 169.2 29.3333C168.4 29.3333 168.4 30.2666 169.333 31.8666Z" fill="black"/>
<path d="M194 30.4C192.533 30.6666 190.8 31.6 190.267 32.5333C189.467 33.6 188.933 33.6 188.4 32.2666C187.6 30.2666 185.333 30.1333 185.333 32.1333C185.333 33.0666 184.267 34.5333 183.067 35.4666C180.933 36.9333 181.067 37.2 184.667 38C193.333 40.1333 196.933 46.9333 192.533 53.0666C191.2 55.0666 190.8 57.0666 191.467 59.0666C192.4 61.8666 192.533 61.7333 193.333 58C193.733 55.8666 195.2 53.4666 196.667 52.6666C199.067 51.4666 199.333 50.5333 198.4 45.7333C197.867 42.5333 196.933 38.9333 196.133 37.7333C195.333 36.2666 195.333 34.5333 196.267 32.9333C197.867 30 197.467 29.6 194 30.4Z" fill="black"/>
<path d="M352 30.6667C352 31.3333 352.667 32 353.467 32C354.133 32 354.4 31.3333 354 30.6667C353.6 29.8667 352.933 29.3333 352.533 29.3333C352.267 29.3333 352 29.8667 352 30.6667Z" fill="black"/>
<path d="M0 34.6666C0 37.1999 0.4 37.4666 1.6 36.2666C2.8 35.0666 2.8 34.2666 1.6 33.0666C0.4 31.8666 0 32.1332 0 34.6666Z" fill="black"/>
<path d="M33.2 33.7333C35.2 36.2666 33.6 37.4666 29.8667 36.5333C26.6667 35.7333 26.5333 35.8666 26.1333 41.3333C25.8667 44.5333 28.1333 45.3333 30.6667 42.9333C35.3333 38.3999 36.6667 31.9999 33.0667 31.9999C32.1333 31.9999 32.1333 32.6666 33.2 33.7333Z" fill="black"/>
<path d="M131.2 34.2667C130.8 35.6 129.867 37.7333 129.2 39.0667C128.133 41.0667 128.267 41.4667 130.267 41.0667C131.6 40.8 132.533 39.6 132.533 38.2667C132.4 37.0667 132.8 36 133.467 36C134.133 36 134.667 35.0667 134.667 34C134.667 31.2 132.133 31.4667 131.2 34.2667Z" fill="black"/>
<path d="M267.733 33.6C268.4 34.2667 269.867 34.6667 270.8 34.4C271.867 34 271.2 33.4667 269.467 32.9333C267.2 32.4 266.667 32.5333 267.733 33.6Z" fill="black"/>
<path d="M20 36.1333C20 36.9333 19.2 37.3333 18.1333 36.9333C17.0667 36.5333 15.2 36.9333 14 37.8667C11.7333 39.4667 11.8667 39.7333 14.8 41.7333C16.5333 43.0667 17.3333 44 16.5333 44C15.7333 44 14.6667 43.6 14.1333 43.0667C12.4 41.3333 4.00001 41.6 4.00001 43.4667C4.00001 44.4 2.93334 46.1333 1.73334 47.4667C-0.399995 49.4667 -0.399995 49.7333 1.86667 51.3333C4.13334 53.0667 4.13334 53.0667 1.73334 53.7333C0.133338 54.1333 5.08369e-06 54.4 1.33334 54.5333C2.40001 54.5333 4.00001 55.7333 4.93334 57.0667C6.26667 59.3333 6.00001 59.4667 3.06667 58.9333C5.08369e-06 58.4 -0.133328 58.5333 1.20001 61.0667C2.26667 63.0667 2.26667 64 0.933339 64.5333C-0.266662 65.2 -0.266662 65.4667 1.06667 66.1333C1.86667 66.5333 2.26667 67.6 1.73334 68.4C1.33334 69.3333 1.33334 69.6 2.00001 69.0667C2.53334 68.5333 4.26667 68.9333 5.86667 70C7.33334 71.0667 10.1333 72 12.1333 72C14.1333 72 16.4 72.9333 17.3333 74C19.6 76.8 20.4 76.5333 22.2667 72.4C23.6 69.6 23.6 68.5333 22.2667 67.6C21.2 66.8 21.4667 66.6667 23.0667 67.2C24.4 67.6 26.2667 68 27.0667 68C28 68 27.8667 68.5333 26.6667 69.3333C25.0667 70.4 25.2 70.6667 27.4667 70.6667C28.9333 70.6667 31.3333 71.8667 32.6667 73.3333C35.8667 76.8 37.6 76.6667 41.0667 72.6667L44 69.3333H39.4667C36.9333 69.3333 34.4 68.6667 34 67.8667C33.4667 67.0667 32.2667 66.8 31.3333 67.2C29.0667 68 27.4667 64 29.3333 62.1333C30.2667 61.2 32 61.3333 35.0667 62.6667C37.3333 63.6 41.7333 64.4 44.5333 64.4C47.4667 64.2667 49.0667 64.6667 48.1333 65.3333C46.9333 66 47.3333 66.5333 49.6 67.3333C52.1333 68.1333 52.2667 68.4 50.4 68.9333C46.9333 69.8667 47.3333 70.8 52.8 75.2C58.5333 79.7333 61.8667 86.4 59.6 89.0667C57.6 91.6 60.6667 93.3333 67.0667 93.3333C71.3333 93.3333 76.2667 94.8 78.5333 96.8C78.9333 97.2 78 98.2667 76.5333 99.3333C74.1333 101.2 74.2667 101.2 78 101.333C84.5333 101.333 91.8667 104 93.3333 106.667C94.9333 109.6 94.4 115.6 92.1333 119.867C90.5333 122.667 90.6667 122.8 93.2 122C94.8 121.467 98.4 122.533 102.667 124.667C108.4 127.6 109.2 127.733 108.133 125.733C105.6 121.333 103.067 118.667 101.467 118.667C99.7333 118.667 99.4667 111.467 101.333 108.133C102.133 106.533 102 104.267 101.067 101.6C99.7333 98 99.8667 97.0667 102 94.6667C103.333 93.2 104.133 91.6 103.733 91.2C103.333 90.8 101.733 91.8667 100.133 93.4667C97.8667 96 97.3333 96.1333 97.3333 94.2667C97.3333 93.0667 98.5333 91.4667 100.133 90.6667C102.667 89.3333 102.667 88.9333 100.933 86.9333C95.7333 81.3333 94.4 72 98 68C100.667 65.0667 100.533 63.8667 97.7333 64.9333C94.1333 66.1333 92 69.4667 92 73.6C92 77.7333 90 78.4 86.5333 75.2C84.4 73.2 84.2667 73.3333 84.9333 75.8667C85.3333 77.4667 86.8 80.9333 88.1333 83.6L90.6667 88.5333L87.7333 90.2667C83.8667 92.4 79.4667 92.5333 80.8 90.5333C81.4667 89.4667 80.5333 89.2 77.8667 89.7333C75.7333 90.1333 71.4667 89.8667 68.2667 89.0667C62.6667 87.7333 62.6667 87.6 64.6667 84.5333C66.5333 81.6 66.5333 81.2 64.2667 79.2C61.7333 77.0667 61.7333 69.8667 64.1333 71.4667C64.8 71.8667 65.3333 71.4667 65.3333 70.8C65.3333 68.6667 70.1333 69.0667 72 71.3333C73.4667 73.0667 73.3333 73.2 71.4667 72.5333C69.8667 71.8667 69.4667 72.2667 70.1333 73.7333C70.8 75.4667 71.4667 75.6 74.1333 74.4C77.4667 72.9333 78.6667 70.4 75.7333 70.9333C74.9333 71.2 73.8667 70.2667 73.6 68.9333C73.3333 67.6 73.8667 66.6667 75.2 66.6667C76.6667 66.6667 77.3333 65.4667 77.3333 62.6667C77.3333 60.4 76.6667 58.6667 75.8667 58.6667C74.9333 58.6667 74.6667 57.3333 74.9333 55.4667C75.4667 52.9333 75.0667 52.4 72.8 52.9333C68.8 53.8667 61.3333 57.7333 61.3333 58.9333C61.3333 60.1333 54.4 60.4 51.4667 59.2C50.2667 58.8 49.3333 57.2 49.3333 55.8667C49.3333 54.5333 49.2 53.3333 49.0667 53.3333C48.8 53.2 46.2667 52.9333 43.3333 52.5333C40.4 52.1333 37.4667 51.2 36.8 50.6667C36.1333 50 34.5333 50 33.0667 50.8C31.7333 51.4667 30.1333 51.8667 29.6 51.4667C29.0667 51.2 27.4667 52.5333 26.1333 54.4C24.6667 56.2667 24.1333 57.3333 24.9333 56.9333C25.7333 56.4 27.0667 56.9333 28 57.8667C29.2 59.4667 28.9333 60.1333 26.8 61.2C23.3333 63.0667 22.6667 63.0667 22.6667 60.9333C22.6667 59.7333 21.4667 59.3333 19.0667 59.6C16.9333 60 13.0667 59.2 10.1333 58C3.73334 55.3333 5.33334 52.9333 14 52.6667C17.3333 52.5333 21.0667 51.4667 22.4 50.4C23.6 49.2 25.6 48.5333 26.6667 48.9333C27.7333 49.2 26.5333 48.2667 24 46.8C21.4667 45.3333 19.8667 44.1333 20.5333 44C21.2 44 20.9333 43.0667 20 42C18.1333 39.7333 19.4667 36.8 22.1333 37.8667C23.2 38.2667 23.6 37.8667 23.0667 36.5333C22.2667 34.2667 20 34 20 36.1333ZM92 79.4667C92 80.5333 89.4667 81.2 88.8 80.2667C88.4 79.6 88.9333 79.0667 90 79.0667C91.0667 79.0667 92 79.3333 92 79.4667ZM96.8 103.333C99.8667 108 98.4 108.8 93.8667 104.933C91.7333 103.2 89.0667 101.333 88 100.933C86.9333 100.533 88 100.133 90.2667 100.133C93.4667 100 95.2 100.8 96.8 103.333Z" fill="black"/>
<path d="M372.667 38.6667C372.267 39.3333 372.8 40 374 40C375.2 40 375.733 39.3333 375.333 38.6667C374.933 37.8667 374.267 37.3333 374 37.3333C373.733 37.3333 373.067 37.8667 372.667 38.6667Z" fill="black"/>
<path d="M140 44.1333C140.933 45.6 141.867 46.5333 142.267 46.1333C143.333 45.0666 141.6 41.3333 140 41.3333C139.067 41.3333 139.067 42.1333 140 44.1333Z" fill="black"/>
<path d="M272 44.2666C272.4 44.6666 274.8 45.6 277.333 46.5333C279.867 47.3333 281.333 47.4666 280.667 46.8C279.867 46.1333 277.6 45.0666 275.333 44.5333C273.2 44 271.6 43.8666 272 44.2666Z" fill="black"/>
<path d="M226.667 46.5332C226.667 47.7332 230.667 49.7332 231.467 48.9332C231.733 48.7999 230.667 47.8666 229.333 46.9332C227.867 45.9999 226.667 45.8666 226.667 46.5332Z" fill="black"/>
<path d="M115.2 48.6667C120 51.2 121.467 51.2 118.133 48.6667C116.667 47.6 114.533 46.6667 113.467 46.6667C112.267 46.6667 113.067 47.6 115.2 48.6667Z" fill="black"/>
<path d="M214.667 48.2666C214.667 48.5333 215.867 49.7333 217.333 51.0666C218.8 52.2666 220 52.8 220 52C220 51.3333 218.8 50.1333 217.333 49.3333C215.867 48.5333 214.667 48.1333 214.667 48.2666Z" fill="black"/>
<path d="M262.133 51.4666C262.533 53.0666 262.267 54.8 261.467 55.3333C258.267 57.2 261.6 58.5333 265.067 56.8C268.267 55.2 269.333 55.2 273.733 57.3333C278.667 59.7333 278.933 59.7333 281.333 57.3333C282.8 55.8666 283.467 53.7333 283.067 52.1333C282.533 49.8666 281.067 49.4666 271.867 49.0666C261.733 48.6666 261.467 48.8 262.133 51.4666Z" fill="black"/>
<path d="M202.4 50.2667C203.333 50.6667 204.533 50.5333 204.933 50.1333C205.467 49.7333 204.667 49.3333 203.2 49.4667C201.733 49.4667 201.333 49.8667 202.4 50.2667Z" fill="black"/>
<path d="M172 53.9999C172 54.7999 172.667 56.1333 173.6 57.0666C174.8 58.2666 174.667 59.0666 172.533 60.7999C171.2 61.8666 170.8 62.5333 171.6 61.9999C172.8 61.4666 173.2 62.1333 172.933 64.2666C172.8 65.9999 173.333 67.3333 174.4 67.3333C175.2 67.3333 175.867 66.9333 175.733 66.5333C175.467 65.9999 176.4 64.3999 177.733 62.9333C179.733 60.7999 179.867 59.7333 178.667 57.4666C177.867 55.8666 176.533 54.9333 175.733 55.4666C175.067 55.9999 173.867 55.4666 173.2 54.5333C172.533 53.4666 172 53.3333 172 53.9999Z" fill="black"/>
<path d="M257.333 54.6667C256.267 55.3333 256 56 256.667 56C257.467 56 258.933 55.3333 260 54.6667C261.067 54 261.467 53.3333 260.667 53.3333C260 53.3333 258.4 54 257.333 54.6667Z" fill="black"/>
<path d="M286.667 60.6666C286.667 61.7333 287.6 62.6666 288.8 62.6666C290.667 62.6666 290.667 62.2666 289.333 60.6666C288.4 59.6 287.467 58.6666 287.2 58.6666C286.933 58.6666 286.667 59.6 286.667 60.6666Z" fill="black"/>
<path d="M148 62C148.933 63.0666 150.133 63.6 150.8 63.2C152.533 62.1333 150.933 60 148.4 60C146.667 60 146.667 60.4 148 62Z" fill="black"/>
<path d="M234.533 65.7333C236.667 67.8666 242.4 67.9999 243.2 65.8666C243.733 64.3999 242.667 64.1333 238.533 64.2666C235.067 64.3999 233.733 64.9333 234.533 65.7333Z" fill="black"/>
<path d="M117.733 70.2666C117.733 73.7333 119.867 76 123.2 76C128.667 76 140.133 83.0666 144.133 88.9333C146.4 92.1333 148.267 94.6666 148.533 94.6666C148.8 94.6666 148.667 93.0666 148.267 91.2C147.867 88.8 148.267 87.2 149.867 86.4C151.067 85.7333 152 84.5333 152 83.6C152 82.6666 151.467 82.8 150.667 84C150 85.0666 149.2 85.6 148.667 85.2C147.733 84.2666 154.4 76.8 158 74.8C160.267 73.6 159.733 73.4666 154.4 73.3333C150.933 73.3333 147.733 72.6666 147.333 72C146 69.8666 140.933 70.4 141.733 72.5333C142.533 74.5333 136.4 76.5333 135.333 74.6666C134.933 74 133.467 73.8666 131.867 74.2666C129.2 75.0666 123.867 73.0666 119.867 69.7333C118.133 68.2666 117.733 68.4 117.733 70.2666Z" fill="black"/>
<path d="M194.4 72.1333C194.8 74.3999 194.4 75.9999 193.467 75.9999C192.667 75.9999 192 76.9333 192 77.9999C192 79.4666 190.4 79.9999 186.4 80.1333C183.2 80.2666 178.667 80.5333 176.4 80.7999C173.467 81.0666 172 80.6666 172 79.5999C172 78.5333 171.467 78.6666 170.667 79.9999C168.533 83.3333 169.067 83.7333 175.333 83.5999C180.133 83.5999 181.867 84.1333 183.467 86.3999C185.733 89.7333 192.4 90.5333 191.2 87.4666C190.8 86.3999 189.333 85.8666 187.6 86.2666C185.333 86.7999 185.6 86.2666 188.933 83.9999C191.333 82.3999 196.267 80.7999 200.533 80.3999C208.933 79.4666 209.333 76.9333 200.933 77.5999C195.333 77.9999 195.333 77.9999 195.733 73.7333C196 71.4666 195.6 69.3333 194.933 68.9333C194.4 68.5333 194.133 69.8666 194.4 72.1333Z" fill="black"/>
<path d="M226 69.3333C224.933 71.0666 226.667 71.0666 229.333 69.3333C231.067 68.2666 231.067 68 229.067 68C227.867 68 226.4 68.5333 226 69.3333Z" fill="black"/>
<path d="M265.067 69.0666C263.733 69.3332 262.667 70.1332 262.667 70.7999C262.667 72.5332 266.267 72.2666 267.333 70.5332C268.533 68.7999 267.867 68.3999 265.067 69.0666Z" fill="black"/>
<path d="M237.733 70.4C236.667 71.0666 237.2 71.8666 239.2 72.8C241.867 74 242.267 73.8666 241.6 71.7333C240.933 69.0666 240.133 68.8 237.733 70.4Z" fill="black"/>
<path d="M22.4 84C20.1333 87.2 18.5333 88 14.5333 88C11.7333 88 8.53333 87.0667 7.33333 85.8667C6.13333 84.6667 4.8 84 4.4 84.5333C4 84.9333 2.8 84.6667 1.86667 84C0.666669 82.9333 0.266669 88.4 0.133335 109.733L-0.133331 136.933L3.6 136.4C5.73334 136 8.26667 135.467 9.33333 135.067C10.4 134.533 11.7333 134.133 12.2667 134.133C12.6667 134 13.6 133.6 14.1333 132.933C15.4667 131.6 23.7333 131.733 24.6667 133.2C25.0667 133.867 27.2 134.8 29.4667 135.333C31.7333 135.867 33.8667 137.2 34.4 138.4C35.2 140.8 38.6667 143.867 40.4 144C40.9333 144 41.3333 142.8 41.3333 141.467C41.3333 140 42 138.4 42.6667 138C43.4667 137.467 41.6 134.667 38.4 131.467C35.2 128.267 32.5333 124.667 32.2667 123.2C31.2 116.133 24.8 109.333 19.2 109.333C16.4 109.333 16.1333 106 18.6667 102.667C21.3333 99.0667 20.8 96 17.4667 96C16 96 15.8667 96.4 16.9333 97.0667C19.6 98.8 16.8 101.867 14 100.267C12.6667 99.6 10.5333 99.3333 9.06667 99.7333C7.2 100.133 6.8 99.7333 7.46667 98.1333C8.53333 95.4667 13.4667 94.1333 18.5333 95.0667C21.2 95.6 22.6667 95.3333 23.2 94C23.6 92.9333 24.9333 92 26.2667 92C28.1333 92 28.2667 91.7333 26.8 90.8C25.6 90 25.2 88 25.6 84.8C25.8667 82.1333 26 80 25.7333 80C25.6 80 24.1333 81.7333 22.4 84ZM22.8 113.333C24.1333 114.133 25.3333 115.6 25.3333 116.667C25.3333 117.6 26.1333 118.667 26.9333 118.933C29.4667 119.867 26 126.667 23.2 126.667C22 126.667 18.5333 124.8 15.4667 122.4C12.5333 120.133 9.73333 118 9.46667 117.733C9.2 117.467 10.2667 116.133 12 114.667C15.4667 111.733 18.8 111.333 22.8 113.333ZM6.13333 122C2.8 124.533 1.33334 124.533 1.33334 122C1.33334 120.667 2.66667 120 5.06667 120C8.53333 120.133 8.53333 120.133 6.13333 122Z" fill="black"/>
<path d="M154.8 82.2667C153.867 83.3333 153.467 84.5333 153.867 84.9333C155.067 86.1333 157.733 83.2 157.2 81.6C156.933 80.8 155.867 81.2 154.8 82.2667Z" fill="black"/>
<path d="M248.267 85.4666C247.067 87.3333 247.067 88.8 248 90.6666C248.667 92 249.333 94.4 249.333 95.8666C249.333 97.4666 249.867 98.6666 250.533 98.6666C252.133 98.6666 253.6 94.8 252.533 93.0666C252.133 92.4 251.467 89.8666 251.067 87.6C250.267 82.2666 250.267 82.2666 248.267 85.4666Z" fill="black"/>
<path d="M329.333 83.9999C327.733 85.0666 327.867 85.3333 330.4 85.3333C332 85.3333 333.333 84.6666 333.333 83.9999C333.333 82.2666 331.867 82.2666 329.333 83.9999Z" fill="black"/>
<path d="M356.533 84.6666C355.067 85.5999 352.4 86.6666 350.667 87.0666C348.533 87.4666 349.333 87.7333 353.067 87.8666C356.133 87.8666 358.667 88.6666 358.667 89.3333C358.667 90.6666 364.133 93.4666 365.067 92.6666C365.6 92.1333 362.533 86.6666 360.533 84.5333C359.333 83.1999 358.533 83.1999 356.533 84.6666Z" fill="black"/>
<path d="M371.333 85.6C372.8 86.4 374.133 87.2 374.4 87.4666C374.667 87.6 374.133 89.2 373.2 90.9333C371.733 93.7333 371.733 93.8666 373.733 92.1333C376.667 89.7333 376.533 87.0666 373.467 85.3333C369.867 83.4666 368 83.7333 371.333 85.6Z" fill="black"/>
<path d="M275.467 88.9333C274.933 90.2666 274.933 90.8 275.467 90.2666C276 89.7333 277.2 90 278.267 90.9333C279.733 92.1333 279.867 91.8666 279.067 90C278.4 88.1333 278.667 87.7333 280.4 88.4C281.6 88.8 282.667 88.6666 282.667 88C282.667 85.7333 276.267 86.5333 275.467 88.9333Z" fill="black"/>
<path d="M322.667 87.3333C321.067 94.5333 326.267 110.133 332 115.333C333.467 116.667 334.667 119.2 334.667 120.933C334.667 123.6 334 124 330 124C327.067 124 324.267 125.067 322.667 126.667C321.2 128.133 320 128.667 320 127.733C320 126.533 319.6 126.533 318.533 127.6C316.933 129.2 310.4 127.867 307.467 125.467C304.933 123.333 296.4 122.267 295.333 124C294.933 124.667 295.333 125.467 296.267 125.6C297.2 125.6 298.667 125.867 299.467 125.867C301.733 126.133 309.733 133.333 307.733 133.333C306.4 133.333 306.4 133.6 307.867 134.533C309.333 135.467 309.333 135.733 307.867 136.4C306.8 136.8 308.4 137.067 311.333 137.2C315.467 137.2 316.133 136.933 314 136C311.733 135.067 312 134.8 315.6 134.8C318.4 134.667 321.067 135.867 323.6 138.133C325.6 140.133 326.133 140.8 324.8 139.867C322.533 138.267 322.267 138.267 322.933 140C323.2 141.067 324.533 142 325.733 142C326.8 142 328.267 142.533 328.8 143.067C330.667 144.8 331.733 144 331.067 141.333C330.667 140 329.733 138.933 328.933 139.067C326.267 139.6 326.4 134.933 329.067 134.133C334.267 132.4 342.8 135.6 347.733 140.933L352.4 146L351.6 141.467C351.067 139.067 350.667 136 350.667 134.667C350.667 132.133 341.333 125.333 338 125.333C335.467 125.333 335.333 122.8 338 121.867C339.067 121.333 340 120.267 340 119.2C340 116.267 349.333 115.2 353.6 117.733C357.2 119.867 357.333 119.733 358.133 116.533C358.533 114.8 358.667 111.733 358.4 110C357.733 106.667 359.067 105.467 360.667 108C361.067 108.667 363.467 109.333 365.733 109.333C368.133 109.333 371.467 110.267 373.067 111.467C375.733 113.333 376 113.333 376 111.333C376 108 370.133 98.6667 368 98.6667C367.333 98.6667 366.533 100.133 366.133 101.867C365.733 103.6 364.4 105.467 363.2 105.867C360.933 106.8 356 104.533 356 102.667C356 101.867 355.467 101.333 354.667 101.333C354 101.333 353.333 103.733 353.333 106.533C353.333 109.467 352.933 112.133 352.4 112.4C350.133 113.6 338 111.2 338.4 109.6C338.533 108.667 337.867 108 336.8 108C335.733 108 334.533 107.2 334.267 106.267C333.867 105.333 333.467 105.733 333.467 107.067C333.333 108.4 332.8 109.2 332.133 108.667C330.933 108 331.333 102.133 332.8 99.7333C333.867 98.1333 340 98.4 340 100.133C340 100.933 340.933 100.533 342.133 99.4667C344.533 96.9333 344.8 96.9333 348.133 98.8C349.6 99.4667 350.4 100.8 349.867 101.733C349.2 102.933 349.333 102.933 350.533 101.867C354.533 98.2667 348.933 94.9333 340 95.7333C338.933 95.8667 336.267 95.3333 334.133 94.6667C330.933 93.6 330.667 93.7333 331.867 95.2C333.867 97.4667 332.133 98.8 328.4 97.8667C326.533 97.3333 325.2 95.3333 324.267 91.6C323.6 88.5333 322.8 86.5333 322.667 87.3333Z" fill="black"/>
<path d="M184 91.9999C184 92.6666 184.667 93.3333 185.467 93.3333C186.133 93.3333 186.4 92.6666 186 91.9999C185.6 91.1999 184.933 90.6666 184.533 90.6666C184.267 90.6666 184 91.1999 184 91.9999Z" fill="black"/>
<path d="M188 94.2666C188 95.2 187.333 96 186.4 96C185.6 96 185.333 96.4 185.733 96.8C186.267 97.3333 188.133 96.6666 190 95.4666C194 92.8 197.733 93.4666 196.533 96.6666C195.467 99.4666 199.867 110.933 201.733 110.267C202.533 110 203.333 107.733 203.333 105.067C203.6 98.5333 197.6 91.8666 192 92.2666C189.733 92.4 188 93.3333 188 94.2666Z" fill="black"/>
<path d="M215.2 94.6666C215.333 95.7333 216.533 96.7999 218 96.9333C220 97.0666 220 96.9333 218.4 96.5333C217.2 96.1333 215.867 95.0666 215.6 94.2666C215.333 93.3333 215.2 93.5999 215.2 94.6666Z" fill="black"/>
<path d="M265.6 93.2C264.267 94 264.4 94.5333 266.533 95.0667C268.4 95.4667 269.333 95.0667 269.333 93.8667C269.333 91.7333 268.133 91.4667 265.6 93.2Z" fill="black"/>
<path d="M150.667 96.1333C150.667 96.8 151.333 97.0667 152 96.6667C152.8 96.2667 153.333 95.6 153.333 95.2C153.333 94.9333 152.8 94.6667 152 94.6667C151.333 94.6667 150.667 95.3333 150.667 96.1333Z" fill="black"/>
<path d="M123.2 101.733C122.667 102.667 122.667 102.933 123.333 102.4C123.867 101.867 125.067 102.267 125.867 103.333C126.8 104.533 128 104.8 129.067 104.267C130.267 103.467 129.867 102.667 127.467 101.6C124.933 100.4 123.867 100.533 123.2 101.733Z" fill="black"/>
<path d="M281.067 104.933C282 105.333 283.2 105.2 283.6 104.8C284.133 104.4 283.333 104 281.867 104.133C280.4 104.133 280 104.533 281.067 104.933Z" fill="black"/>
<path d="M43.3333 106.267C39.8667 107.2 38.5333 109.467 40.2667 111.6C41.8667 113.6 44.5333 114 43.3333 112C42.9333 111.2 43.8667 110.533 45.6 110.533C48 110.4 48.1333 110.267 46.2667 109.733C44.4 109.2 44.1333 108.667 45.4667 107.2C46.2667 106.133 46.8 105.467 46.5333 105.467C46.2667 105.6 44.8 106 43.3333 106.267Z" fill="black"/>
<path d="M148 107.6L144.667 109.6L148 108.667C149.867 108.133 152.4 107.733 153.733 107.867C154.933 107.867 155.733 107.333 155.333 106.533C154.267 104.933 152 105.2 148 107.6Z" fill="black"/>
<path d="M256.267 108C256.267 109.867 256.533 110.533 256.933 109.6C257.2 108.8 257.2 107.2 256.933 106.267C256.533 105.467 256.267 106.133 256.267 108Z" fill="black"/>
<path d="M160.267 107.867C158.8 108.8 158.8 109.067 160.4 109.733C161.6 110.133 163.2 109.6 164 108.533C165.333 107.067 165.333 106.667 163.867 106.667C162.8 106.667 161.2 107.2 160.267 107.867Z" fill="black"/>
<path d="M163.333 112C162.933 112.667 163.2 113.333 163.867 113.333C164.667 113.333 165.333 112.667 165.333 112C165.333 111.2 165.067 110.667 164.8 110.667C164.4 110.667 163.733 111.2 163.333 112Z" fill="black"/>
<path d="M135.333 113.333C134 115.6 136.933 118.267 138.667 116.533C139.733 115.467 139.467 114.533 138.133 113.467C136.8 112.267 136 112.267 135.333 113.333Z" fill="black"/>
<path d="M163.733 115.333C162.667 116.4 167.733 126.667 169.333 126.667C170 126.667 170.133 128 169.733 129.6C169.333 131.467 169.6 132.133 170.267 131.2C170.8 130.4 172.533 129.067 174 128.267C176.667 126.8 176.667 126.667 173.733 125.867C171.867 125.333 170.667 124 170.667 122.4C170.667 120.933 169.6 119.467 168.133 119.067C166.667 118.667 165.333 117.467 165.067 116.4C164.8 115.333 164.267 114.8 163.733 115.333Z" fill="black"/>
<path d="M255.467 115.867C254.933 116.8 254.8 117.867 255.2 118.267C256.4 119.467 257.733 117.733 257.067 115.867C256.533 114.4 256.267 114.4 255.467 115.867Z" fill="black"/>
<path d="M264.667 116C266.933 116.533 270.533 117.067 272.667 117.067H276.667L272.667 116C270.533 115.467 266.933 114.933 264.667 114.933H260.667L264.667 116Z" fill="black"/>
<path d="M238 118.667C238.4 119.333 239.467 120 240.133 120C240.933 120 241.067 119.333 240.667 118.667C240.267 117.867 239.2 117.333 238.533 117.333C237.733 117.333 237.6 117.867 238 118.667Z" fill="black"/>
<path d="M131.467 120.933C130.667 122.8 130.8 122.933 132.133 121.733C133.067 120.8 133.467 119.733 133.067 119.333C132.667 118.933 131.867 119.6 131.467 120.933Z" fill="black"/>
<path d="M66.6667 121.6C66.6667 122.4 65.3333 124.533 63.7333 126.267C61.2 128.933 61.0667 129.6 62.6667 130.667C64.5333 131.867 63.6 132.533 61.0667 132.133C60.4 132.133 60 132.667 60 133.467C60 134.267 60.9333 134.533 62.1333 134.133C63.3333 133.6 65.7333 134.267 67.4667 135.333C71.3333 137.867 71.6 136.267 68 132.4C65.6 129.733 65.6 129.2 67.3333 124.8C68.5333 122 68.8 120 68 120C67.3333 120 66.6667 120.667 66.6667 121.6Z" fill="black"/>
<path d="M126.667 121.333C124.933 122.4 125.067 122.667 127.067 122.667C128.267 122.667 129.333 122 129.333 121.333C129.333 119.733 129.2 119.733 126.667 121.333Z" fill="black"/>
<path d="M208 121.467C208 122 208.933 122.667 210 123.2C211.2 123.6 212 123.2 212 122.133C212 121.2 211.067 120.4 210 120.4C208.933 120.4 208 120.933 208 121.467Z" fill="black"/>
<path d="M161.333 125.467C161.333 126.133 162 126.4 162.667 126C163.467 125.6 164 124.933 164 124.533C164 124.267 163.467 124 162.667 124C162 124 161.333 124.667 161.333 125.467Z" fill="black"/>
<path d="M133.067 126.267C134 126.667 135.2 126.533 135.6 126.133C136.133 125.733 135.333 125.333 133.867 125.467C132.4 125.467 132 125.867 133.067 126.267Z" fill="black"/>
<path d="M199.333 126.667C199.733 127.333 200.4 128 200.8 128C201.067 128 201.333 127.333 201.333 126.667C201.333 125.867 200.667 125.333 199.867 125.333C199.2 125.333 198.933 125.867 199.333 126.667Z" fill="black"/>
<path d="M127.6 127.467C127.2 128 127.6 129.2 128.667 130.133C129.6 131.2 130.667 132.667 131.067 133.6C131.467 134.933 132.267 134.8 134 133.067C136.933 130.4 135.467 127.6 131.733 128.8C129.867 129.333 129.333 129.067 129.867 128.133C130.933 126.533 129.067 126.133 127.6 127.467Z" fill="black"/>
<path d="M358 130.667C358.4 131.333 359.067 132 359.467 132C359.733 132 360 131.333 360 130.667C360 129.867 359.333 129.333 358.533 129.333C357.867 129.333 357.6 129.867 358 130.667Z" fill="black"/>
<path d="M85.3333 132C85.3333 133.867 87.3333 134.533 89.2 133.467C90.4 132.667 90.1333 132.133 88.1333 131.6C86.5333 131.2 85.3333 131.467 85.3333 132Z" fill="black"/>
<path d="M183.333 133.333C183.733 134 184.4 134.667 184.8 134.667C185.067 134.667 185.333 134 185.333 133.333C185.333 132.533 184.667 132 183.867 132C183.2 132 182.933 132.533 183.333 133.333Z" fill="black"/>
<path d="M230 133.867C231.467 134.933 233.2 135.467 233.867 134.933C234.533 134.533 234 133.733 232.533 133.2C228.4 131.6 227.333 131.867 230 133.867Z" fill="black"/>
<path d="M74.8 136.8C76.1334 138.4 76.1334 139.067 74.9334 139.867C73.2 140.933 74.1334 145.333 76.1334 145.333C77.3334 145.333 80 140.933 80 139.067C80 138.533 78.4 137.333 76.5334 136.4C73.6 135.067 73.3334 135.067 74.8 136.8Z" fill="black"/>
<path d="M89.3333 136.4C89.3333 137.467 90.2666 138.267 91.3333 138.267C92.4 138.267 93.3333 137.467 93.3333 136.4C93.3333 135.467 92.4 134.667 91.3333 134.667C90.2666 134.667 89.3333 135.467 89.3333 136.4Z" fill="black"/>
<path d="M194.8 137.2C196.533 138.667 198.267 139.6 198.533 139.333C199.333 138.533 194.933 134.667 193.333 134.667C192.4 134.667 193.067 135.867 194.8 137.2Z" fill="black"/>
<path d="M225.333 136C225.333 136.8 226.267 137.333 227.333 137.333C228.4 137.333 229.333 137.067 229.333 136.8C229.333 136.533 228.4 136 227.333 135.467C226.267 135.067 225.333 135.333 225.333 136Z" fill="black"/>
<path d="M276 136.267C274.133 136.933 269.6 137.333 265.733 137.067C260.4 136.8 259.2 137.067 260.267 138.267C261.067 139.2 262.533 140 263.467 140C264.533 140 265.333 140.533 265.333 141.333C265.333 142 266.667 143.2 268.133 144.133C270.4 145.2 270.8 145.2 270 144C269.333 142.933 269.733 142.667 271.467 143.067C272.933 143.467 275.2 144.133 276.8 144.533C278.4 145.067 280.4 147.067 281.467 149.067L283.2 152.667L283.733 148.933C284 146.8 283.467 144.267 282.667 143.333C281.733 142.267 281.333 140.667 281.733 139.733C282.8 136.8 279.6 134.933 276 136.267Z" fill="black"/>
<path d="M127.6 139.733C126.267 141.067 125.333 143.2 125.333 144.4C125.333 145.6 123.6 148.267 121.467 150.267C117.333 154.133 116.267 157.733 118 161.6C119.067 164.267 125.333 164.8 127.6 162.533C128.533 161.6 131.333 160.533 133.867 160.133L138.667 159.333L136.667 155.467C135.6 153.467 134.667 151.6 134.667 151.467C134.667 151.333 135.867 151.2 137.333 151.2C138.8 151.2 140 151.6 140 152.133C140 153.467 145.333 154.533 147.6 153.733C149.467 153.067 149.467 152.667 147.333 151.2C146.133 150.267 144.267 149.867 143.333 150.133C142.4 150.533 140.933 149.733 140.133 148.267C138.4 145.067 131.733 137.333 130.533 137.333C130.133 137.333 128.8 138.4 127.6 139.733ZM133.333 157.333C133.333 158 132.4 158.667 131.333 158.667C130.267 158.667 129.333 158 129.333 157.333C129.333 156.533 130.267 156 131.333 156C132.4 156 133.333 156.533 133.333 157.333Z" fill="black"/>
<path d="M164 138.667C164 139.333 164.667 140 165.467 140C166.133 140 166.4 139.333 166 138.667C165.6 137.867 164.933 137.333 164.533 137.333C164.267 137.333 164 137.867 164 138.667Z" fill="black"/>
<path d="M186.533 140.667C185.867 145.333 191.333 157.333 194.133 157.333C196.133 157.333 198.533 153.333 197.733 151.2C197.467 150.4 198.133 148.933 199.333 148C200.4 147.067 201.333 145.6 201.333 144.8C201.333 143.733 201.067 143.733 200.267 144.8C199.733 145.6 197.467 146.8 195.2 147.2C190.4 148.267 188.533 146.533 187.733 140.667L187.2 136.667L186.533 140.667Z" fill="black"/>
<path d="M99.7333 141.067C97.6 142.267 96 144 96 144.933C96 146.8 98.2667 146.933 105.467 145.6C109.867 144.8 110.267 144.4 109.2 141.6C107.867 138.133 104.667 137.867 99.7333 141.067Z" fill="black"/>
<path d="M370.533 140.933C370.4 141.6 370.4 142.4 370.533 142.933C370.667 144.267 370.133 144.267 366.133 142.667C363.333 141.6 362.533 141.867 361.333 144C359.333 147.6 359.6 148 363.733 148C365.733 148 369.067 148.933 371.2 150C376.133 152.533 376 152.667 376 148.267C375.867 143.6 371.067 137.2 370.533 140.933Z" fill="black"/>
<path d="M14.6667 144.133C14.6667 144.933 18 146.667 19.4667 146.667C19.7334 146.667 20 145.867 20 144.933C20 144 18.8 143.2 17.3334 143.2C15.8667 143.2 14.6667 143.6 14.6667 144.133Z" fill="black"/>
<path d="M22.2667 145.067C22 146.267 21.2 148.4 20.6667 149.867C19.7333 152 19.8667 152.133 22.4 150.8C24 149.867 25.3333 148.133 25.3333 146.667C25.3333 143.333 23.2 142.133 22.2667 145.067Z" fill="black"/>
<path d="M86.1334 145.2C85.6 146 85.6 146.667 86.1334 146.667C86.6667 146.667 86 147.867 84.6667 149.333C82.2667 151.867 82.4 152 85.2 152C88.6667 152 93.3334 154.267 93.3334 156C93.3334 157.467 99.2 164 100.533 164C101.067 164 101.2 163.467 100.8 162.933C100.4 162.267 102.533 161.867 105.6 161.867C111.6 162 112.933 160.533 110.267 156.8C108.267 154 102.667 154.933 102.667 158C102.667 159.2 101.867 159.6 100.667 159.2C99.3334 158.667 98.9334 157.467 99.3334 155.867C99.8667 154.267 99.6 153.333 98.5334 153.333C97.6 153.333 95.7334 152.4 94.5334 151.2C92.6667 149.467 92.4 148.4 93.4667 146.4C94.6667 144.133 94.5334 144 92 145.6C89.7334 147.067 89.0667 147.067 88.1334 145.467C87.3334 144.267 86.6667 144.133 86.1334 145.2ZM97.3334 156C97.3334 156.667 96.8 157.333 96 157.333C95.3334 157.333 94.6667 156.667 94.6667 156C94.6667 155.2 95.3334 154.667 96 154.667C96.8 154.667 97.3334 155.2 97.3334 156Z" fill="black"/>
<path d="M114.4 144.933C115.2 145.2 116.8 145.2 117.733 144.933C118.533 144.533 117.867 144.267 116 144.267C114.133 144.267 113.467 144.533 114.4 144.933Z" fill="black"/>
<path d="M166.267 148.8C162.4 150.8 158.667 151.867 156.933 151.467C155.333 151.067 154.8 151.067 155.733 151.467C158.667 152.8 157.333 154.267 153.733 153.6C151.6 153.333 150.4 153.467 150.933 154C151.467 154.533 154.8 154.933 158.267 154.933C162.533 154.8 164 155.2 162.8 155.867C161.333 156.8 162.267 157.467 166.267 158.533C170.267 159.6 172.933 159.6 177.467 158.267C180.667 157.2 183.733 156.4 184.4 156.267C186 155.867 185.067 154.133 181.733 151.6C180.133 150.267 178.133 149.467 177.467 149.867C176.8 150.267 175.867 149.733 175.467 148.533C174.933 147.2 175.2 146.8 176.267 147.467C177.2 148 177.333 147.867 176.8 146.933C175.467 144.667 173.467 145.067 166.267 148.8ZM172.933 152.667C173.867 155.333 173.6 155.467 168.667 156.533C165.2 157.333 164.533 156.933 164.4 154.8C164.133 150.933 171.467 149.2 172.933 152.667Z" fill="black"/>
<path d="M239.733 149.2C237.867 149.867 238 150.4 240.8 152.4C243.067 154.133 244 154.267 244 153.067C244 150 242.133 148.4 239.733 149.2Z" fill="black"/>
<path d="M333.333 152.667C333.333 154.533 332.8 156 332 156C331.333 156 330.667 156.533 330.667 157.2C330.667 157.733 333.6 158.267 337.2 158.133C340.8 158 343.467 157.6 343.067 156.933C342.8 156.4 343.467 156 344.533 156C345.6 156 347.333 157.333 348.133 158.933C349.733 162 359.067 172 360.4 172C360.8 172 360.8 170.667 360.4 169.2C358.8 163.467 364.8 168.933 366.533 174.8C369.333 183.867 365.2 185.333 352.533 179.733C350.533 178.8 348.533 178.933 346 180.4C342.267 182.267 342.267 182.4 345.067 183.867C346.933 184.8 348.133 184.933 348.667 184C349.067 183.333 348.667 182.667 347.733 182.667C346.8 182.667 347.2 181.867 348.533 181.067C350.533 180 351.333 180 351.733 181.067C352 182 353.067 182.667 354.133 182.667C355.2 182.667 356 183.2 356 184C356 184.667 356.8 185.333 357.733 185.333C358.667 185.333 360.133 186.933 360.933 188.933C362.267 192.4 362.4 192.4 362.533 189.6C362.667 186.267 363.733 186 367.333 188.533C368.8 189.467 371.333 190.667 373.067 191.2C376 192.133 376 192 376 180.8C376 169.6 375.867 169.333 372.8 169.333C369.733 169.333 367.467 165.733 367.867 161.6C368.133 159.867 367.2 159.467 361.333 158.133C359.467 157.733 356.933 155.6 355.6 153.333C353.467 149.867 352.8 149.467 351.067 150.8C348.8 152.667 339.467 152.533 335.733 150.533C333.733 149.467 333.333 149.733 333.333 152.667ZM364.8 165.067C363.6 166.133 361.333 163.733 361.333 161.6C361.467 159.6 361.6 159.6 363.333 161.867C364.4 163.333 365.067 164.667 364.8 165.067Z" fill="black"/>
<path d="M32 153.6C32 154.933 31.4666 156 30.6666 156C30 156 29.3333 157.2 29.3333 158.667C29.3333 160.533 30.5333 161.467 34.4 162.133C37.0666 162.667 40.8 163.733 42.6666 164.667C44.5333 165.6 47.6 166.133 49.6 165.733C54.6666 164.8 54.9333 166.8 50.5333 171.867C45.4666 177.733 45.4666 180.533 50.5333 174.933C52.8 172.667 55.2 170.667 56 170.667C56.8 170.667 57.0666 170 56.6666 169.2C55.2 167.067 61.6 162.4 65.0666 163.067C67.0666 163.467 68.5333 162.8 69.3333 161.333C70.9333 158.267 67.6 156.667 63.8666 158.8C60.5333 160.533 56.4 159.2 54.6666 156C52.9333 152.933 41.4666 151.067 37.3333 153.333C34.9333 154.667 34.1333 154.533 33.2 153.2C32.2666 151.733 32 151.867 32 153.6Z" fill="black"/>
<path d="M285.333 156.667C287.067 158.533 288.8 160 289.067 160C289.467 160 288.4 158.533 286.667 156.667C284.933 154.8 283.2 153.333 282.933 153.333C282.533 153.333 283.6 154.8 285.333 156.667Z" fill="black"/>
<path d="M9.46666 159.333C6.53333 160.267 5.6 161.2 6.8 161.6C7.86666 162 9.73333 161.733 11.0667 161.067C12.5333 160.267 13.3333 160.4 13.3333 161.333C13.3333 162.133 14 162.4 14.6667 162C16.2667 161.067 16.5333 157.2 15.0667 157.467C14.4 157.6 12 158.4 9.46666 159.333Z" fill="black"/>
<path d="M294.8 163.067C293.467 164.8 293.733 165.2 296 166C299.733 167.2 300.4 166.4 298.267 163.467C296.667 161.333 296.267 161.333 294.8 163.067Z" fill="black"/>
<path d="M271.333 166.667C270 168.133 266.533 170 263.6 170.8C259.6 171.867 258.667 172.533 260.133 173.467C262.133 174.667 267.467 174.133 274.667 171.733C277.2 170.8 280.267 170.267 281.333 170.533C282.667 170.8 282.267 169.733 280.133 167.467C276.267 163.333 274.533 163.2 271.333 166.667Z" fill="black"/>
<path d="M316.667 165.333C317.067 166 317.733 166.667 318.133 166.667C318.4 166.667 318.667 166 318.667 165.333C318.667 164.533 318 164 317.2 164C316.533 164 316.267 164.533 316.667 165.333Z" fill="black"/>
<path d="M348.267 168C349.2 169.333 350.133 170.4 350.267 170.133C351.067 169.333 349.067 165.333 347.867 165.333C347.2 165.333 347.333 166.533 348.267 168Z" fill="black"/>
<path d="M67.6 168.4C68.9333 170.533 68.1333 176.4 66.2666 177.6C65.2 178.267 65.6 178.8 67.0666 179.467C69.4666 180.267 73.3333 176.933 73.2 174C73.2 173.2 72.8 173.467 72.4 174.267C71.0666 177.733 69.0666 176 69.7333 172.133C70.2666 169.333 70 168 68.5333 167.467C67.2 166.933 66.8 167.2 67.6 168.4Z" fill="black"/>
<path d="M84 169.2C84 170.533 84.9333 172.4 86 173.333C87.0667 174.267 88 176.667 88 178.8C88 183.2 88.9333 183.6 91.4667 180.267C93.6 177.6 93.8667 175.467 92.1333 176.667C90.5333 177.6 88 173.2 88 169.467C88 167.867 87.0667 166.667 86 166.667C84.9333 166.667 84 167.733 84 169.2Z" fill="black"/>
<path d="M170.8 170.133C170.8 171.6 171.2 172 171.6 170.933C172 170 171.867 168.8 171.467 168.4C171.067 167.867 170.667 168.667 170.8 170.133Z" fill="black"/>
<path d="M187.6 170.4C186.267 172 186.4 172.533 187.867 173.067C189.2 173.467 189.2 173.867 188 174.667C187.067 175.2 186.8 176.4 187.2 177.2C188.267 178.8 192.533 179.333 191.6 177.6C191.2 177.067 191.467 175.2 192.133 173.467C193.067 171.2 194.133 170.533 196 171.067C197.467 171.467 198.4 171.333 198 170.667C196.667 168.533 189.333 168.4 187.6 170.4Z" fill="black"/>
<path d="M242.933 169.6C242 170.533 241.333 172.933 241.333 175.067C241.333 178.4 241.733 178.667 244.267 177.867C246.933 177.067 247.067 177.2 245.6 178.933C243.467 181.6 246.4 184.533 249.333 182.533C251.067 181.467 251.067 181.2 249.467 180.133C248.267 179.333 248 178 248.667 176.533C249.467 174.533 249.733 174.4 250.267 176C252.133 181.867 252 181.867 254.667 178.933C257.733 175.733 258.133 174 255.733 175.467C254.533 176.267 254.533 175.867 255.733 174.267C257.333 172.4 256.933 171.867 252.667 170C246.667 167.6 245.067 167.467 242.933 169.6Z" fill="black"/>
<path d="M130.267 170.267C128.8 171.6 129.2 176 130.667 176C131.467 176 132 174.533 132 172.667C132 169.2 131.733 168.8 130.267 170.267Z" fill="black"/>
<path d="M331.333 170.667C331.733 171.333 332.8 172 333.467 172C334.267 172 334.4 171.333 334 170.667C333.6 169.867 332.533 169.333 331.867 169.333C331.067 169.333 330.933 169.867 331.333 170.667Z" fill="black"/>
<path d="M161.333 171.6C162.4 172 164.267 173.067 165.333 173.867C167.067 175.2 167.067 175.067 165.467 172.933C164.533 171.733 162.667 170.667 161.467 170.8C159.733 170.8 159.6 170.933 161.333 171.6Z" fill="black"/>
<path d="M200.667 172C201.067 172.667 201.733 173.333 202.133 173.333C202.4 173.333 202.667 172.667 202.667 172C202.667 171.2 202 170.667 201.2 170.667C200.533 170.667 200.267 171.2 200.667 172Z" fill="black"/>
<path d="M283.2 174.133C283.6 175.333 284 176.533 284 176.8C284 177.067 284.533 177.333 285.2 177.333C286 177.333 286.4 176.133 286.267 174.667C286.133 173.2 285.2 172 284.267 172C283.067 172 282.667 172.8 283.2 174.133Z" fill="black"/>
<path d="M3.33334 174.533C2.93334 175.333 3.46667 176 4.53334 176C5.73334 176 6.66667 176.533 6.66667 177.333C6.66667 178 7.6 178.667 8.66667 178.667C9.73334 178.667 11.2 179.867 12 181.467C12.9333 182.933 13.8667 183.867 14.2667 183.6C15.0667 182.667 10.5333 174.667 9.2 174.667C8.66667 174.667 7.33334 174.267 6.26667 173.867C5.2 173.467 3.86667 173.733 3.33334 174.533Z" fill="black"/>
<path d="M271.6 174.267C271.333 174.933 272.533 176.8 274.267 178.533L277.333 181.733V178.4C277.333 176.533 276.4 174.533 275.2 174.133C272.533 173.067 272.267 173.067 271.6 174.267Z" fill="black"/>
<path d="M132.8 177.2C131.467 178.667 129.6 179.467 128.533 179.067C127.467 178.667 126.667 179.067 126.667 179.867C126.667 180.667 127.333 181.333 128 181.333C128.8 181.333 129.333 182 129.333 182.667C129.333 184.133 133.467 188.8 137.867 192.133C140.4 194 140.4 193.867 138.133 189.467C136.4 186.267 136 183.467 136.533 179.733C137.467 174.133 136.267 173.333 132.8 177.2Z" fill="black"/>
<path d="M299.6 178.667C300 180.133 300.8 181.333 301.6 181.333C302.267 181.333 302.133 180.133 301.333 178.667C300.533 177.2 299.733 176 299.467 176C299.2 176 299.2 177.2 299.6 178.667Z" fill="black"/>
<path d="M157.333 180.267C157.333 181.333 158 182.8 158.933 183.733C159.867 184.667 160.933 188.133 161.333 191.6C162.267 199.867 164.933 200.667 165.467 192.8C166 187.467 165.467 186.267 161.733 182.533C158.933 179.867 157.333 179.067 157.333 180.267Z" fill="black"/>
<path d="M207.333 182.133C204.8 184.133 204.8 184.133 208.667 183.733C210.933 183.467 212.533 182.8 212.4 182C212 179.867 210.133 180 207.333 182.133Z" fill="black"/>
<path d="M261.467 180.933C261.467 181.467 262 183.2 262.667 184.667C263.733 187.2 263.867 187.2 263.867 184.4C264 182.8 263.467 181.067 262.667 180.667C262 180.267 261.333 180.267 261.467 180.933Z" fill="black"/>
<path d="M294 181.333C293.6 182 294.133 182.667 295.2 182.667C296.267 182.667 297.6 182 298 181.333C298.4 180.533 297.867 180 296.8 180C295.733 180 294.4 180.533 294 181.333Z" fill="black"/>
<path d="M314.267 182.133C313.333 183.067 322.267 188 324.933 188C327.867 188 326.8 185.867 323.867 185.733C322.267 185.6 320 184.533 318.8 183.467C316.267 181.067 315.467 180.933 314.267 182.133Z" fill="black"/>
<path d="M279.467 186.933C278.133 193.333 279.467 195.6 282.8 192.533C285.6 190 286.133 188 284 188C283.333 188 282.533 189.067 282.533 190.267C282.4 191.6 281.867 190.267 281.333 187.333L280.533 182L279.467 186.933Z" fill="black"/>
<path d="M338 184C337.6 184.667 337.733 185.333 338.533 185.333C339.2 185.333 340.267 184.667 340.667 184C341.067 183.2 340.933 182.667 340.133 182.667C339.467 182.667 338.4 183.2 338 184Z" fill="black"/>
<path d="M198.267 186.267C197.2 187.333 201.2 190.133 206.267 192C209.467 193.067 209.6 193.067 207.467 191.6C206.133 190.8 204 188.933 202.8 187.6C200.533 185.2 199.6 184.8 198.267 186.267Z" fill="black"/>
<path d="M41.3333 188.667C40.4 189.867 40 191.067 40.4 191.467C40.8 191.867 41.7333 190.933 42.6667 189.467C44.4 186.133 43.7333 185.867 41.3333 188.667Z" fill="black"/>
<path d="M124 187.2C124 187.467 125.067 188.533 126.4 189.467C128.4 191.2 128.533 191.067 126.8 188.933C125.067 186.8 124 186.133 124 187.2Z" fill="black"/>
<path d="M182.267 188.667C181.067 189.733 179.067 190.667 177.733 190.667C175.867 190.8 176.133 191.467 179.333 194C182.933 196.933 183.333 197.067 184.533 195.067C185.333 193.467 185.2 192.667 184.133 192.267C182.933 191.867 182.933 191.333 184.133 189.867C186.4 187.2 184.8 186.133 182.267 188.667Z" fill="black"/>
<path d="M20 189.467C20 190.133 20.6667 190.4 21.3333 190C22.1333 189.6 22.6667 188.933 22.6667 188.533C22.6667 188.267 22.1333 188 21.3333 188C20.6667 188 20 188.667 20 189.467Z" fill="black"/>
<path d="M116.667 189.333C116.267 190 116.4 190.667 117.2 190.667C117.867 190.667 118.933 190 119.333 189.333C119.733 188.533 119.6 188 118.8 188C118.133 188 117.067 188.533 116.667 189.333Z" fill="black"/>
<path d="M304.133 192L301.067 194.667H304.533C307.067 194.667 308 194 308 192C308 188.8 308.133 188.8 304.133 192Z" fill="black"/>
<path d="M324.933 190.267C323.2 191.867 324 193.333 326.667 193.333C328.4 193.333 329.067 192.667 328.533 191.333C327.6 189.2 326.267 188.8 324.933 190.267Z" fill="black"/>
<path d="M78.4 191.6C79.3333 192 80.5333 191.867 80.9333 191.467C81.4667 191.067 80.6667 190.667 79.2 190.8C77.7333 190.8 77.3333 191.2 78.4 191.6Z" fill="black"/>
<path d="M239.733 196.133C236.8 200.133 236.4 201.867 237.333 204.933C238.4 208.533 238.533 208.533 239.333 205.733C239.867 204 240.933 203.067 242.133 203.6C244.933 204.667 248.4 201.333 246.667 199.333C246 198.533 245.733 197.333 246.133 196.933C246.533 196.533 246.133 195.067 245.2 193.6C243.467 191.2 243.2 191.333 239.733 196.133Z" fill="black"/>
<path d="M262 192C260.533 192.533 258.8 192.667 258 192.267C257.333 191.867 257.067 192 257.6 192.533C258 193.067 260.4 194.533 262.8 195.733C265.867 197.333 267.6 199.333 268.4 202.533C269.2 205.6 269.867 206.667 270.933 205.6C271.733 204.8 271.867 202.933 271.2 201.2C270.667 199.467 270.133 197.333 270 196.667C270 195.867 269.2 195.333 268.133 195.333C267.067 195.333 265.867 194.4 265.467 193.2C264.933 191.733 263.867 191.333 262 192Z" fill="black"/>
<path d="M348.267 193.2C349.2 194.8 350.667 195.733 351.467 195.467C352.267 195.2 353.733 195.6 354.8 196.4C355.867 197.333 355.733 196.667 354.4 194.667C353.333 192.8 351.067 191.2 349.467 190.933C346.8 190.533 346.667 190.667 348.267 193.2Z" fill="black"/>
<path d="M59.2 194C60.6667 195.067 62.5333 196 63.2 196C64 196 63.4667 195.067 62.1333 194C60.6667 192.933 58.8 192 58.1333 192C57.3333 192 57.8667 192.933 59.2 194Z" fill="black"/>
<path d="M66.6667 194.533C64.9333 198 64.9333 198.667 67.2 197.867C68.2667 197.467 70 198.533 71.2 200.267C73.3333 203.2 73.3333 203.2 73.3333 197.6C73.3333 192.933 72.9333 192 70.6667 192C69.3333 192 67.4667 193.2 66.6667 194.533Z" fill="black"/>
<path d="M248.667 194.667C248.267 195.333 248.533 196 249.2 196C250 196 250.667 195.333 250.667 194.667C250.667 193.867 250.4 193.333 250.133 193.333C249.733 193.333 249.067 193.867 248.667 194.667Z" fill="black"/>
<path d="M294.4 202C294.933 207.6 298 212 301.6 212C303.733 212 302.533 207.733 299.333 203.467C297.467 201.067 296 198.4 296 197.6C296 196.667 295.6 196 294.933 196C294.4 196 294.133 198.667 294.4 202Z" fill="black"/>
<path d="M360.8 197.867C363.6 199.867 364.8 199.733 363.333 197.467C362.933 196.667 361.467 196 360.267 196C358.533 196 358.533 196.267 360.8 197.867Z" fill="black"/>
<path d="M19.7333 199.467C20.9333 201.733 22 202.133 24.9333 201.467L28.6666 200.8L25.3333 200.267C23.4666 200 21.2 199.067 20.1333 198.267C18.5333 196.933 18.5333 197.067 19.7333 199.467Z" fill="black"/>
<path d="M139.2 200.667C137.733 206.933 133.067 214.933 128.267 219.333L123.733 223.467L127.467 229.067C130.8 234.267 131.6 234.667 136.933 234.667C140.133 234.667 142.667 234.4 142.667 234C142.667 233.733 140 232.267 136.933 230.8C129.733 227.467 126.8 224.4 129.733 223.333C130.8 222.8 133.333 219.6 135.2 215.867C137.2 212.267 139.467 209.333 140.267 209.333C140.933 209.333 141.2 208.4 140.8 207.2C140.267 206 140.667 204.267 141.467 203.2C142.4 202 142.4 200.667 141.6 199.067C140.4 196.933 140.133 197.2 139.2 200.667Z" fill="black"/>
<path d="M35.8667 202.267C34.1333 204.4 34.2667 204.533 36.4 202.8C37.6 201.867 38.6667 200.8 38.6667 200.533C38.6667 199.467 37.6 200.133 35.8667 202.267Z" fill="black"/>
<path d="M42.8 202.8C45.4666 204.8 45.6 204.933 43.2 205.867C41.7333 206.4 40.4 206.933 40 206.933C39.6 206.933 38 207.467 36.4 208.133C33.7333 209.067 33.3333 208.8 33.3333 205.867C33.3333 202.933 32.8 202.533 29.0666 202.933C25.7333 203.2 24.2666 204.4 22.4 207.867C21.0666 210.4 20.1333 212.667 20.4 212.8C20.5333 212.933 22 213.467 23.7333 213.867C26.1333 214.667 26.6666 214.267 26.6666 212.133C26.6666 210.533 26 209.333 25.3333 209.333C24.5333 209.333 24.6666 208.533 25.6 207.467C27.8666 204.933 29.7333 206.267 28.8 209.867C28 213.333 29.6 216.267 32 215.733C34 215.333 34.1333 216 34.4 224.267C34.5333 227.467 35.3333 229.333 36.4 229.333C37.3333 229.333 38.2666 230.667 38.2666 232.267C38.5333 234.533 38.2666 234.8 37.3333 233.333C35.2 229.867 34.6666 232.8 36.4 238C37.4666 240.933 39.0666 243.467 40.1333 243.733C41.6 244.133 41.6 243.867 40 242.8C38.1333 241.467 38.2666 241.2 41.3333 240.8C42.1333 240.8 42.5333 240 42.4 239.333C42.1333 238.533 41.2 238.133 40.4 238.133C39.2 238.267 39.0666 237.733 40 236C40.6666 234.8 40.9333 232 40.5333 229.867C40.2666 227.733 40.4 226.667 41.0666 227.6C41.6 228.533 42.8 228.667 43.7333 228.133C44.9333 227.333 44.6666 226.4 42.6666 224C39.7333 220.533 39.3333 219.2 41.3333 218C42.1333 217.467 42.4 216.533 42 215.867C41.4666 215.2 41.8666 214.667 42.5333 214.667C43.3333 214.667 44 213.733 44 212.533C44 210.8 43.3333 210.933 40 213.333C36.6666 215.733 36 215.867 36 214.133C36 212.933 37.2 212 38.6666 212C40.1333 212 41.3333 211.6 41.3333 210.933C41.3333 210.4 44.4 208 48 205.467C51.7333 202.933 54.6666 200.8 54.6666 200.533C54.6666 200.4 51.3333 200.267 47.2 200.4C40.1333 200.533 40 200.667 42.8 202.8Z" fill="black"/>
<path d="M210.133 201.2C209.6 202 207.867 202.8 206.267 202.8C203.6 202.933 203.6 203.067 206 203.6C207.467 204 209.733 205.6 210.933 207.067L213.333 210V206.667C213.333 202.4 211.333 199.067 210.133 201.2Z" fill="black"/>
<path d="M322.267 200.933C319.867 203.333 324 208 328.667 208C331.067 208 331.6 207.467 331.067 205.2C330.667 203.733 328.8 201.867 327.067 201.2C323.2 199.733 323.333 199.733 322.267 200.933Z" fill="black"/>
<path d="M334.133 207.2C334.533 208.267 337.733 209.733 341.067 210.533C344.533 211.2 348.4 212.267 349.6 212.667C351.333 213.333 351.733 212.933 351.333 210.8C350.4 205.867 349.333 205.333 341.333 205.333C334.933 205.333 333.6 205.733 334.133 207.2Z" fill="black"/>
<path d="M368.667 206.667C369.067 207.333 369.733 208 370.133 208C370.4 208 370.667 207.333 370.667 206.667C370.667 205.867 370 205.333 369.2 205.333C368.533 205.333 368.267 205.867 368.667 206.667Z" fill="black"/>
<path d="M163.467 208.4C163.867 209.733 164.667 210.4 165.067 210C165.467 209.6 165.067 208.533 164.133 207.6C162.8 206.4 162.667 206.533 163.467 208.4Z" fill="black"/>
<path d="M290 208C289.6 208.8 290.133 208.933 291.2 208.533C293.6 207.6 294 206.667 292.133 206.667C291.333 206.667 290.4 207.2 290 208Z" fill="black"/>
<path d="M125.333 210L120.667 211.733H126.667C130 211.733 131.867 211.467 130.933 211.067C130.133 210.8 129.6 209.867 130.133 209.2C130.933 207.733 131.2 207.733 125.333 210Z" fill="black"/>
<path d="M179.067 214.667C178.267 216.933 178.133 218.4 178.8 217.867C179.467 217.467 180 219.067 180 221.2C180 223.467 179.467 225.333 178.667 225.333C178 225.333 177.333 226 177.333 226.8C177.333 229.867 180.533 226.933 181.6 223.067C182.8 218.267 186.133 216.533 189.067 218.933C190.8 220.4 190.667 220 188.8 216.4C187.333 213.6 186 212.4 184.667 212.8C183.6 213.333 182.667 212.933 182.667 212.133C182.667 209.2 180.533 210.667 179.067 214.667Z" fill="black"/>
<path d="M210.667 211.6C210.667 213.6 214.8 217.733 215.733 216.667C216.133 216.267 215.2 214.667 213.6 212.933C212 211.333 210.667 210.8 210.667 211.6Z" fill="black"/>
<path d="M357.6 217.2C353.6 219.2 353.333 219.733 355.2 221.2C356.4 222.133 358.533 222.667 360 222.267C361.467 221.867 363.067 222.133 363.467 222.8C363.867 223.467 365.733 224 367.733 224C371.067 223.867 371.2 223.733 368.933 222.133C367.6 221.067 366.667 219.733 366.8 219.2C367.733 214.133 364.533 213.467 357.6 217.2Z" fill="black"/>
<path d="M256.133 216.533C257.467 217.867 263.733 218.4 265.467 217.2C266.667 216.4 265.467 216 261.467 216C258.267 216 255.867 216.267 256.133 216.533Z" fill="black"/>
<path d="M21.8666 220.8C19.4666 222.667 19.4666 222.8 22.4 221.333C24 220.533 25.3333 219.6 25.3333 219.333C25.3333 218.267 24.6666 218.533 21.8666 220.8Z" fill="black"/>
<path d="M55.2 222C54.8 223.067 54.8 224.533 55.3333 225.333C56.4 227.067 61.3333 227.067 61.3333 225.333C61.3333 224.533 62.5333 224.533 64.6666 225.333C67.2 226.267 68 226.133 68 224.667C68 220.533 56.6666 218.133 55.2 222Z" fill="black"/>
<path d="M26.6667 224C26.6667 226.933 30 226.4 31.2 223.2C31.6 222 31.0667 221.333 29.3334 221.333C27.6 221.333 26.6667 222.267 26.6667 224Z" fill="black"/>
<path d="M175.333 222.667C174.933 223.333 175.067 224 175.867 224C176.533 224 177.6 223.333 178 222.667C178.4 221.867 178.267 221.333 177.467 221.333C176.8 221.333 175.733 221.867 175.333 222.667Z" fill="black"/>
<path d="M298 222.667C297.6 223.333 298.267 224 299.6 224.133C300.933 224.133 303.067 224.4 304.533 224.667C307.733 225.333 305.6 223.2 301.733 222.133C300.133 221.6 298.533 221.867 298 222.667Z" fill="black"/>
<path d="M373.333 227.333C374.267 228.533 375.333 229.067 375.6 228.8C376.533 227.867 374.667 225.333 373.067 225.333C372.267 225.333 372.267 226.133 373.333 227.333Z" fill="black"/>
<path d="M20 227.2C20 227.467 20.9333 228.4 22 229.333C23.6 230.667 24 230.667 24 228.8C24 227.6 23.0667 226.667 22 226.667C20.9333 226.667 20 226.933 20 227.2Z" fill="black"/>
<path d="M74.1333 228.667C73.7333 229.733 74 230.667 74.6666 230.667C75.4666 230.667 76 229.733 76 228.667C76 227.6 75.7333 226.667 75.4666 226.667C75.2 226.667 74.6666 227.6 74.1333 228.667Z" fill="black"/>
<path d="M199.333 228C199.733 228.667 200.4 229.333 200.8 229.333C201.067 229.333 201.333 228.667 201.333 228C201.333 227.2 200.667 226.667 199.867 226.667C199.2 226.667 198.933 227.2 199.333 228Z" fill="black"/>
<path d="M353.333 228.533C353.333 228.8 354.8 229.333 356.667 229.6C358.4 230 359.6 229.733 359.2 229.2C358.533 228 353.333 227.467 353.333 228.533Z" fill="black"/>
<path d="M204.933 233.333C205.333 234.667 206.4 236.533 207.467 237.467C208.8 238.533 208.8 237.867 207.2 234.8C204.8 230.133 204 229.467 204.933 233.333Z" fill="black"/>
<path d="M368.133 232.8C368.133 234.267 368.533 234.667 368.933 233.6C369.333 232.667 369.2 231.467 368.8 231.067C368.4 230.533 368 231.333 368.133 232.8Z" fill="black"/>
<path d="M28.8 233.6C27.6 236.267 31.2 240.933 32.6667 238.667C33.0667 238 32.9333 237.333 32.1333 237.333C31.4667 237.333 30.6667 236 30.2667 234.267C29.8667 231.733 29.6 231.6 28.8 233.6Z" fill="black"/>
<path d="M267.2 234.533C268.4 235.867 269.333 237.6 269.333 238.4C269.333 239.2 270.533 240.533 271.867 241.333C274.267 242.533 274.267 242.4 273.067 238.933C272.267 236.933 270.133 234.533 268.267 233.6C265.2 232.133 265.067 232.267 267.2 234.533Z" fill="black"/>
<path d="M178.667 234.267C178.667 234.8 180.667 237.2 182.933 239.6C186.533 243.333 186.933 244.267 185.333 245.333C184 246.267 183.867 246.667 185.067 246.667C188 246.667 186.8 252 183.333 253.6C180 255.067 178.533 258.133 181.733 256.933C183.733 256.267 189.333 258.133 189.333 259.733C189.333 260.267 187.067 260.533 184.4 260.267C180.8 260 179.867 260.267 181.2 261.067C182.267 261.867 183.733 262.133 184.667 261.867C185.467 261.467 187.6 262.8 189.333 264.667C191.067 266.533 193.2 268 194.267 268C196.667 268 196.533 261.467 194.133 260.533C193.067 260.133 191.6 258 190.8 255.867C189.6 252.533 189.733 252 191.867 252C193.2 252 195.067 252.933 196 254C197.467 255.733 198 255.6 200.133 253.2C201.6 251.6 202.8 250.667 202.8 251.067C202.933 251.6 203.067 252.4 203.2 252.933C203.333 253.6 203.867 254.8 204.4 255.733C205.067 256.667 205.067 258.667 204.667 260.4C203.733 263.333 203.733 263.333 205.867 260.667C206.933 259.2 208 258.667 208 259.6C208 260.533 208.933 260.933 210 260.533C211.067 260 212 260.4 212 261.2C212 263.333 220.667 263.067 222.533 260.933C223.6 259.467 222.933 258.667 219.2 256.933C216.667 255.733 213.733 254.667 212.667 254.667C211.6 254.667 210.667 254 210.667 253.333C210.667 252.533 209.333 252 207.733 252C206.267 252 202.933 250.533 200.533 248.667C198.133 246.8 194.933 245.333 193.333 245.333C191.6 245.333 190.133 244 189.2 241.733C187.333 236.667 184.133 233.333 181.067 233.333C179.733 233.333 178.667 233.733 178.667 234.267ZM221.333 260.8C221.333 261.067 219.867 261.2 218.133 261.067C216.267 260.933 215.067 260.4 215.467 259.867C216 258.933 221.333 259.867 221.333 260.8Z" fill="black"/>
<path d="M365.333 234.533C365.333 235.333 365.867 236.267 366.667 236.667C367.467 237.067 367.6 236.533 367.2 235.467C366.267 233.067 365.333 232.667 365.333 234.533Z" fill="black"/>
<path d="M156 235.867C154.667 236.8 154.4 237.6 155.333 238.533C157.2 240.4 166.933 238.8 166.267 236.8C165.6 234.933 158.533 234.267 156 235.867Z" fill="black"/>
<path d="M362.133 236.667C362.667 237.733 363.6 238.667 364.267 238.667C365.067 238.667 364.933 237.867 364 236.667C363.067 235.6 362.133 234.667 361.867 234.667C361.6 234.667 361.733 235.6 362.133 236.667Z" fill="black"/>
<path d="M64.9334 238.267C63.7334 238.667 63.0667 239.467 63.4667 240.133C63.8667 240.933 63.2 241.333 62 241.067C60.6667 240.8 59.3334 241.467 58.9334 242.533C58.5334 243.6 58.9334 244 59.7334 243.467C61.7334 242.267 62.9334 247.067 61.8667 251.333C60.9334 255.333 62.8 257.333 67.3334 257.2C69.4667 257.067 69.3334 256.933 66.6667 256.133C63.7334 255.333 63.4667 254.667 63.8667 249.333C64 246 64.4 243.2 64.5334 242.933C65.4667 242 69.2 244.4 68.5334 245.467C68.1334 246.133 68.5334 246.667 69.3334 246.667C70.1334 246.667 70.4 245.333 69.8667 242.933C68.8 238.4 68 237.6 64.9334 238.267Z" fill="black"/>
<path d="M120.667 238.667C120.267 239.467 119.067 239.6 118.267 239.067C117.333 238.533 118.267 240 120.267 242.4C122.267 244.8 123.6 247.6 123.2 248.533C122.8 249.6 123.067 250.8 123.867 251.333C124.667 251.733 125.333 251.467 125.333 250.533C125.333 249.733 126.4 249.333 127.867 249.733C130.8 250.533 133.2 246.4 130.4 245.467C129.467 245.2 127.067 243.2 125.067 241.067C122.933 238.8 121.2 237.867 120.667 238.667Z" fill="black"/>
<path d="M304.667 238.667C304.267 239.467 304.8 239.6 305.867 239.2C308.267 238.267 308.667 237.333 306.8 237.333C306 237.333 305.067 237.867 304.667 238.667Z" fill="black"/>
<path d="M6.13334 240.667C6.66667 241.733 7.73334 242.667 8.8 242.667C11.4667 242.667 11.0667 241.733 8 240C5.86667 238.8 5.6 238.933 6.13334 240.667Z" fill="black"/>
<path d="M74.5334 240.4C73.3334 241.333 72.4 243.067 72.4 244.267C72.4 246.267 72.8 246.267 76.2667 244.533C79.6 242.8 80.2667 242.8 82.1334 244.667C84.5334 246.933 86.1334 247.2 87.3334 245.333C87.7334 244.533 87.3334 244 86.2667 244C85.3334 244 83.3334 242.933 81.8667 241.6C78.5334 238.667 77.2 238.533 74.5334 240.4Z" fill="black"/>
<path d="M31.7333 242.267C32.6667 242.667 33.8667 242.533 34.2667 242.133C34.8 241.733 34 241.333 32.5333 241.467C31.0667 241.467 30.6667 241.867 31.7333 242.267Z" fill="black"/>
<path d="M283.467 244.667C284.667 246.533 286.133 247.6 286.8 247.2C288.667 246.133 288.133 244 286 244C284.933 244 284 243.333 284 242.667C284 241.867 283.333 241.333 282.667 241.333C281.867 241.333 282.267 242.8 283.467 244.667Z" fill="black"/>
<path d="M93.0667 243.6C90.4 244.267 89.8667 246.667 92.4 246.667C93.2 246.667 95.2 245.733 96.5334 244.667C99.2 242.667 98 242.267 93.0667 243.6Z" fill="black"/>
<path d="M149.333 244.533C149.333 246.667 151.733 248.667 152.933 247.467C153.333 247.067 152.667 245.867 151.467 244.667C149.6 242.8 149.333 242.8 149.333 244.533Z" fill="black"/>
<path d="M167.067 244.8C170 248.4 170 249.733 166.8 248C163.6 246.4 161.333 246.267 161.333 247.867C161.333 248.533 163.333 249.6 165.733 250C168 250.533 171.2 252 172.533 253.2C175.067 255.333 175.067 255.333 172.533 250.933C171.2 248.533 168.8 245.467 167.333 244.267C164.667 242 164.667 242 167.067 244.8Z" fill="black"/>
<path d="M219.733 243.6C220.533 243.867 222.133 243.867 223.067 243.6C223.867 243.2 223.2 242.933 221.333 242.933C219.467 242.933 218.8 243.2 219.733 243.6Z" fill="black"/>
<path d="M144 245.333C146.533 247.067 148 247.067 148 245.333C148 244.533 146.667 244 145.067 244C142.533 244 142.4 244.267 144 245.333Z" fill="black"/>
<path d="M177.467 246.133C177.467 247.6 177.867 248 178.267 246.933C178.667 246 178.533 244.8 178.133 244.4C177.733 243.867 177.333 244.667 177.467 246.133Z" fill="black"/>
<path d="M290 245.333C290.4 246 291.067 246.667 291.467 246.667C291.733 246.667 292 246 292 245.333C292 244.533 291.333 244 290.533 244C289.867 244 289.6 244.533 290 245.333Z" fill="black"/>
<path d="M138.667 246.667C136.933 247.733 137.067 248 139.067 248C140.267 248 141.333 247.333 141.333 246.667C141.333 245.067 141.2 245.067 138.667 246.667Z" fill="black"/>
<path d="M312.133 247.6C309.733 250.267 311.6 251.733 314.133 249.067C315.333 247.867 315.733 246.667 315.067 246.267C314.533 245.867 313.2 246.533 312.133 247.6Z" fill="black"/>
<path d="M318 248C318.4 248.667 319.067 249.333 319.467 249.333C319.733 249.333 320 248.667 320 248C320 247.2 319.333 246.667 318.533 246.667C317.867 246.667 317.6 247.2 318 248Z" fill="black"/>
<path d="M249.333 250.533C249.333 252 254.533 254 255.6 252.8C256.667 251.733 256 251.2 252.4 250.133C250.667 249.6 249.333 249.733 249.333 250.533Z" fill="black"/>
<path d="M51.6 251.6C50.2667 253.733 51.0667 260.133 52.5334 259.6C54.2667 259.067 55.0667 250.667 53.3334 250.667C52.6667 250.667 51.8667 251.067 51.6 251.6Z" fill="black"/>
<path d="M322.267 254.267C323.467 256 324.667 257.067 325.067 256.8C325.467 256.4 324.933 255.067 323.867 253.733C322.267 251.733 322.267 251.6 324.4 252.4C325.733 252.933 326.533 252.8 326 252.133C325.6 251.333 324.133 250.933 322.8 251.067C320.533 251.2 320.4 251.467 322.267 254.267Z" fill="black"/>
<path d="M257.867 254.933C257.467 255.467 256.533 255.733 255.867 255.333C253.733 253.867 254.533 256.267 257.067 258.267C259.6 260.267 267.733 264 269.6 264C270.267 264 269.6 262.667 268 261.067C266.533 259.467 265.333 257.467 265.333 256.533C265.333 254.667 258.933 253.2 257.867 254.933Z" fill="black"/>
<path d="M340 254.267C340 254.933 341.6 255.467 343.467 255.467C347.2 255.733 352.4 259.733 351.2 261.467C350.8 262.133 351.467 262.667 352.533 262.667C355.733 262.667 355.067 261.067 350.4 257.067C346.4 253.6 340 252 340 254.267Z" fill="black"/>
<path d="M101.333 261.067C101.333 263.867 106 266.933 111.067 267.467C115.333 268 115.467 265.733 111.2 263.467C109.867 262.667 108.267 261.467 107.733 260.8C106 258.4 101.333 258.533 101.333 261.067Z" fill="black"/>
<path d="M0 267.333C0 272.4 1.33333 273.2 4 270C5.46667 268.267 5.2 267.467 2.93333 265.2L0 262.533V267.333Z" fill="black"/>
<path d="M340.667 264C340.267 264.667 340.8 265.733 342 266.133C344.933 267.333 345.867 266 343.467 264.133C342.133 263.067 341.333 262.933 340.667 264Z" fill="black"/>
<path d="M122.533 266.267C121.333 266.533 119.733 268.133 119.067 269.733C118.267 271.467 116.267 272.8 114.667 272.933C110.133 273.333 109.733 274.667 113.2 277.467C114.933 278.8 115.867 280 115.2 280C114.667 280 114.933 280.8 115.867 281.6C117.2 283.067 117.867 282.8 119.467 280.8C121.067 278.533 121.733 278.4 124.533 280C127.333 281.467 128.267 281.333 131.867 278.8C136.267 275.6 140 276.133 137.2 279.467C136 280.8 136 281.333 137.2 281.333C139.733 281.333 140.4 277.733 138.533 274.4C137.6 272.667 136.933 270.8 137.067 270.133C137.333 269.467 136.533 269.333 135.333 269.733C134.267 270.267 133.333 270 133.333 269.2C133.333 268.4 132.8 268.267 132 268.667C131.333 269.067 130.667 268.533 130.667 267.467C130.667 265.333 127.467 264.933 122.533 266.267Z" fill="black"/>
<path d="M275.333 266.667C275.733 267.333 276.933 267.6 278 267.067C280.8 266.133 280.533 265.333 277.2 265.333C275.733 265.333 274.8 265.867 275.333 266.667Z" fill="black"/>
<path d="M28.6667 268.4C27.2 269.333 23.4667 270.933 20.2667 272C14.6667 273.733 14.5333 273.867 17.0667 276.4C20.2667 279.467 25.3333 278.4 25.3333 274.533C25.3333 273.2 26.2667 272 27.3333 272C28.4 272 29.3333 271.333 29.3333 270.4C29.3333 269.2 29.7333 269.2 30.9333 270.4C32.2667 271.733 31.8667 272.533 29.6 274.133C28 275.2 26.6667 277.067 26.6667 278.133C26.6667 279.2 26.1333 280 25.3333 280C24.6667 280 24 280.533 24 281.333C24 283.333 31.6 282.933 32.4 280.933C32.9333 279.733 33.2 279.733 33.2 280.933C33.3333 281.867 34.5333 282.667 36.1333 282.667C40.1333 282.667 39.0667 276.8 35.0667 276.267C31.8667 275.733 31.0667 274.133 33.3333 272.667C35.3333 271.467 34.9333 266.667 32.9333 266.667C32 266.667 30.1333 267.467 28.6667 268.4Z" fill="black"/>
<path d="M37.8667 268.8C40.2667 271.2 48.1334 270.933 49.0667 268.267C49.3334 267.2 47.6 266.667 42.6667 266.667C36.4 266.667 36 266.8 37.8667 268.8Z" fill="black"/>
<path d="M207.333 268C207.733 268.667 208.8 269.333 209.467 269.333C210.267 269.333 210.4 268.667 210 268C209.6 267.2 208.533 266.667 207.867 266.667C207.067 266.667 206.933 267.2 207.333 268Z" fill="black"/>
<path d="M70.6667 268.933C64.9333 270.667 64.8 270.667 66.4 272.267C67.4667 273.333 68.4 273.333 69.8667 272.133C70.9333 271.2 72.4 270.8 73.0667 271.2C73.8667 271.6 75.0667 271.2 75.7333 270.267C76.8 268.933 76.6667 268.533 74.9333 268.4C73.7333 268.4 71.7333 268.533 70.6667 268.933Z" fill="black"/>
<path d="M81.2 269.733C82 270.8 82.2667 272 81.7334 272.4C81.3334 272.933 81.8667 273.333 83.0667 273.333C85.8667 273.333 85.8667 274.533 83.3334 277.867C80.2667 282 80.9334 282.667 87.3334 282.667C92.4 282.667 93.3334 282.267 93.3334 280C93.3334 278.133 92.4 277.333 90.5334 277.333C88.4 277.333 87.8667 276.667 88.4 274.667C88.8 273.2 88.5334 272 87.7334 272C87.0667 272 85.6 271.067 84.5334 270C81.8667 267.467 79.0667 267.2 81.2 269.733Z" fill="black"/>
<path d="M175.467 270.133C175.067 271.333 175.6 272 177.067 272C178.533 272 178.8 272.4 177.733 273.067C176.667 273.733 177.733 274.533 180.533 275.467L184.8 276.8L183.067 273.2C181.067 269.2 176.533 267.333 175.467 270.133Z" fill="black"/>
<path d="M98 270.667C97.6 271.467 98.1333 271.6 99.2 271.2C101.6 270.267 102 269.333 100.133 269.333C99.3333 269.333 98.4 269.867 98 270.667Z" fill="black"/>
<path d="M168 270.667C166.4 271.6 166.533 272 168.667 272.8C170.133 273.333 171.733 274.4 172.267 275.2C172.933 276.267 173.333 276.267 173.333 275.2C173.333 272.267 170 269.333 168 270.667Z" fill="black"/>
<path d="M156 272.533C157.867 274.8 157.733 274.933 155.067 274.133C152 273.2 142.8 277.733 145.067 279.2C145.867 279.733 146.8 279.467 147.333 278.8C147.733 278 148.933 277.733 150 278.133C151.067 278.667 152.267 278 152.8 276.933C153.2 275.733 154.4 275.2 155.333 275.467C158.133 276.533 158.8 273.867 156.267 271.867C154.133 270.133 154.133 270.133 156 272.533Z" fill="black"/>
<path d="M47.7334 274.8C46.4 275.467 45.8667 277.2 46.2667 279.2C46.9334 282.267 47.4667 282.4 55.4667 282.533C60.1334 282.533 64 282 64 281.333C64 280.533 62.9334 280 61.6 280C60.1334 280 58 278.8 56.8 277.467C54 274.4 50.4 273.333 47.7334 274.8Z" fill="black"/>
<path d="M4.8 277.467C3.73333 279.067 2.26667 279.867 1.46667 279.333C0.666667 278.933 0 279.467 0 280.533C0 283.6 12.2667 283.467 14.8 280.533C16.2667 278.667 16.1333 278.133 14 276.533C10.4 273.867 7.06667 274.267 4.8 277.467Z" fill="black"/>
<path d="M42 279.067C40.9334 281.6 41.7334 283.2 43.7334 282.533C44.4 282.267 44.5334 280.8 44 279.333C43.0667 276.8 42.9334 276.8 42 279.067Z" fill="black"/>
<path d="M106.667 278.8C106.667 279.467 107.333 279.733 108 279.333C108.8 278.933 109.333 278.267 109.333 277.867C109.333 277.6 108.8 277.333 108 277.333C107.333 277.333 106.667 278 106.667 278.8Z" fill="black"/>
<path d="M248 278.933C248 279.467 246 280.533 243.733 281.2C240.267 282.133 242.8 282.4 254.667 282.533C267.733 282.667 269.6 282.4 268 280.8C265.867 278.8 248 277.067 248 278.933Z" fill="black"/>
<path d="M160 280.667C158.667 282.267 158.667 282.667 160.4 282.667C163.467 282.667 166.667 281.2 166.667 279.867C166.667 277.867 161.733 278.533 160 280.667Z" fill="black"/>
<path d="M219.067 280C214.667 281.733 215.333 282.8 220.667 282.4C224.267 282.133 224.933 281.733 223.733 280.4C222.933 279.467 222.267 278.667 222.133 278.8C222.133 278.8 220.667 279.333 219.067 280Z" fill="black"/>
<path d="M65.3333 281.333C65.3333 282.133 68.6666 282.667 73.0666 282.533C78.8 282.4 79.8666 282.133 77.3333 281.333C72.5333 279.733 65.3333 279.733 65.3333 281.333Z" fill="black"/>
</g>
</mask>
<g mask="url(#mask0_15_248)">
<path d="M6.46004 113.662C7.21897 116.373 6.81244 119.537 6.78348 122.371C6.78146 122.569 6.83981 122.763 6.95319 122.925C7.64131 123.906 7.78149 123.772 8.39115 124.991C8.73632 125.682 8.93944 128.192 9.42107 128.467C11.6898 129.764 12.7484 133.275 14.6029 135.13C17.0261 137.553 20.8342 141.695 21.8445 144.978C22.6805 147.695 24.6671 149.966 25.1918 152.799C26.0282 157.316 25.8999 161.844 25.8999 166.414C25.8999 171.749 26.3104 176.544 28.5069 181.444C30.7415 186.429 33.5007 191.01 36.3279 195.67C39.6666 201.173 42.661 206.469 48.5261 209.574C51.2489 211.016 53.9255 212.67 56.6045 214.08C61.3822 216.594 67.4119 215.402 72.2465 217.685C76.465 219.677 79.4848 223.883 82.8033 227.083C85.7607 229.935 89.7012 232.018 93.2313 234.035C97.8588 236.679 101.843 240.067 107.007 241.727C111.029 243.02 115.239 242.593 119.43 243.047C123.952 243.535 182.603 265.448 186.5 263.5C187.893 258.701 206.995 268.897 211 267C214.451 265.366 230.782 276.218 233.5 273.5C264.5 296.142 258.387 243.973 262 240.858C264.985 238.285 295.374 246.387 297.5 243.047C300.819 237.831 298.707 99.1883 297.5 92.5487C295.172 79.7467 235 99.2432 238.5 53.5C181.5 105.745 163.617 73.5833 161.721 67.8949C159.119 60.0893 157.556 50.7549 153.064 43.8847C150.977 40.6933 148.75 38.1229 146.112 35.4844C143.786 33.1592 140.173 32.9931 137.132 32.2981C132.085 31.1446 126.844 30.3329 121.747 29.4336C119.553 29.0464 116.226 27.951 114.988 25.9254C112.907 22.5189 112.341 18.3474 109.324 15.4974C106.499 12.8291 100.877 10.3709 97.0291 10.2834C91.069 10.1479 86.0639 9.46019 80.325 10.8949C76.4721 11.8581 72.9359 14.758 69.6717 16.9136C66.48 19.0213 63.315 20.7947 60.0805 22.7713C53.864 26.5702 47.8376 30.0477 41.2522 33.1671C34.9876 36.1345 29.2706 39.0302 23.8078 43.3054C15.1033 50.1177 12.1197 58.3428 11.9959 69.1179C11.9036 77.1461 10.526 84.8631 8.39115 92.5487C7.73251 94.9198 5.90582 96.8397 5.33356 99.2432C4.83362 101.343 5.04389 103.595 5.04389 105.745C5.04389 108.338 5.76314 111.173 6.46004 113.662Z" fill="black"/>
</g>
<defs>
<clipPath id="clip0_15_248">
<rect width="376" height="282.667" fill="white"/>
</clipPath>
</defs>
</svg>
